<?xml version="1.0" encoding="UTF-8"?>
<svg xmlns="http://www.w3.org/2000/svg" viewBox="0 0 390.80 88.00" width="391" height="88">
  <path d="M4.18,14.64Q4.18,12.82 4.06,10.56Q3.94,8.30 3.70,5.66Q3.26,0.82 3.26,-0.24Q3.26,-1.15 3.72,-2.30Q4.18,-3.46 4.80,-4.70Q7.44,-5.52 10.20,-5.90Q12.96,-6.29 17.18,-6.29L16.18,-7.78Q13.15,-12.77 10.99,-12.77Q9.84,-12.77 8.81,-11.95Q7.78,-11.14 6.53,-9.22L4.99,-9.98Q6.24,-13.25 8.06,-15.00Q9.89,-16.75 11.90,-16.75Q13.92,-16.75 16.27,-13.63Q17.81,-11.47 19.08,-10.06Q20.35,-8.64 21.60,-7.68L19.78,-2.78Q14.69,-2.78 11.23,-2.33Q7.78,-1.87 5.09,-0.96Q5.33,0.48 5.57,1.87Q5.81,3.26 6.05,4.66Q6.53,7.01 6.86,9.05Q7.20,11.09 7.39,12.86Q6.72,13.34 5.93,13.80Q5.14,14.26 4.18,14.64Z" fill="rgb(0,0,0)" fill-opacity="1.00" transform="translate(20.00,70.40)"/>
  <path d="M5.33,9.79Q4.56,9.79 3.38,9.36Q2.21,8.93 1.01,8.30Q-0.19,7.68 -0.96,7.10L-0.34,5.52Q1.01,5.76 2.14,5.90Q3.26,6.05 4.22,6.05Q7.82,6.05 10.39,3.89Q12.96,1.73 14.30,-2.35Q13.97,-3.12 13.61,-3.86Q13.25,-4.61 12.82,-5.38Q11.18,-8.30 10.42,-10.06Q9.65,-11.81 9.65,-13.01Q9.65,-14.26 10.37,-15.00Q11.09,-15.74 12.43,-16.37Q12.62,-15.74 12.84,-15.00Q13.06,-14.26 13.39,-13.44Q14.16,-11.47 14.66,-10.01Q15.17,-8.54 15.41,-7.63Q15.70,-6.72 15.86,-5.98Q16.03,-5.23 16.08,-4.61Q17.71,-3.65 19.82,-3.65Q20.21,-3.65 20.21,-3.26L20.21,-0.38Q20.21,-0.00 19.82,-0.00Q17.57,-0.00 15.89,-1.15Q15.36,2.16 13.87,4.63Q12.38,7.10 10.18,8.45Q7.97,9.79 5.33,9.79Z" fill="rgb(0,0,0)" fill-opacity="1.00" transform="translate(43.47,70.40)"/>
  <path d="M0.00,-0.00Q-0.38,-0.00 -0.38,-0.38L-0.38,-3.26Q-0.38,-3.65 0.00,-3.65Q4.51,-3.65 7.82,-4.15Q11.14,-4.66 13.78,-5.86Q16.90,-7.25 18.58,-7.58Q17.66,-8.02 16.73,-8.57Q15.79,-9.12 14.88,-9.79Q13.01,-11.18 11.76,-11.74Q10.51,-12.29 9.26,-12.29Q7.78,-12.29 6.77,-11.90Q5.76,-11.52 3.98,-10.42Q3.31,-11.18 3.31,-12.29Q3.31,-14.11 4.90,-15.22Q6.48,-16.32 9.07,-16.32Q10.61,-16.32 12.17,-15.72Q13.73,-15.12 15.79,-13.68Q18.29,-12.00 20.04,-11.11Q21.79,-10.22 23.57,-9.84Q25.39,-9.41 28.90,-9.41L27.02,-5.86Q26.64,-5.90 25.80,-5.95Q24.96,-6.00 24.10,-6.10Q23.23,-6.19 22.66,-6.24Q23.18,-5.38 23.78,-4.85Q24.38,-4.32 25.34,-4.08Q27.07,-3.65 32.35,-3.65Q32.78,-3.65 32.78,-3.26L32.78,-0.38Q32.78,-0.00 32.35,-0.00Q28.80,-0.05 26.62,-0.55Q24.43,-1.06 23.04,-2.16Q22.37,-2.74 21.72,-3.62Q21.07,-4.51 20.50,-5.71Q19.20,-5.23 17.90,-4.49Q16.61,-3.74 15.31,-3.07Q13.54,-2.16 12.02,-1.56Q10.51,-0.96 8.86,-0.62Q7.20,-0.29 5.09,-0.14Q2.98,-0.00 0.00,-0.00Z" fill="rgb(0,0,0)" fill-opacity="1.00" transform="translate(62.86,70.40)"/>
  <path d="M0.00,-0.00Q-0.38,-0.00 -0.38,-0.38L-0.38,-3.26Q-0.38,-3.65 0.00,-3.65Q2.21,-3.65 4.49,-4.15Q6.77,-4.66 8.50,-5.42Q8.16,-6.53 7.73,-7.85Q7.30,-9.17 6.77,-10.70Q5.86,-13.10 5.86,-13.92Q5.86,-14.98 6.70,-16.08Q7.54,-17.18 8.98,-17.95Q9.07,-17.28 9.36,-15.91Q9.65,-14.54 10.08,-12.43Q10.80,-9.26 10.80,-7.54Q10.80,-6.82 10.34,-5.50Q9.89,-4.18 9.07,-2.64Q4.70,-0.00 0.00,-0.00ZM6.82,9.94Q5.76,9.12 4.90,8.33Q4.03,7.54 3.36,6.77Q5.52,4.70 6.72,3.26Q8.40,5.04 9.89,6.43Q8.74,8.02 6.82,9.94Z" fill="rgb(0,0,0)" fill-opacity="1.00" transform="translate(94.83,70.40)"/>
  <path d="M4.99,-0.00Q4.85,-8.45 4.54,-15.43Q4.22,-22.42 3.70,-27.94Q3.50,-29.90 4.25,-30.89Q4.99,-31.87 6.86,-32.21Q7.06,-31.30 7.51,-29.74Q7.97,-28.18 8.54,-26.50L7.25,-25.39Q7.44,-21.84 7.51,-18.10Q7.58,-14.35 7.51,-10.03Q7.44,-5.71 7.20,-0.38Z" fill="rgb(0,0,0)" fill-opacity="1.00" transform="translate(108.03,70.40)"/>
  <path d="M15.07,-0.00Q9.41,-0.00 6.38,-2.04Q3.36,-4.08 3.36,-8.16Q3.36,-11.23 3.98,-13.44L5.71,-13.44Q5.66,-13.25 5.62,-12.46Q5.57,-11.66 5.57,-11.09Q5.57,-8.30 6.62,-6.79Q7.68,-5.28 9.98,-4.46Q12.34,-3.65 16.08,-3.65Q18.10,-3.65 20.33,-3.89Q22.56,-4.13 24.62,-4.54Q26.69,-4.94 28.22,-5.40Q29.76,-5.86 30.38,-6.29Q31.20,-6.91 31.61,-7.61Q32.02,-8.30 32.78,-9.65Q33.22,-10.37 34.27,-10.37Q35.04,-10.37 35.42,-10.03Q34.80,-8.45 34.30,-7.34Q33.79,-6.24 33.41,-5.66Q35.04,-4.61 36.48,-4.13Q37.92,-3.65 39.70,-3.65Q40.08,-3.65 40.08,-3.26L40.08,-0.38Q40.08,-0.00 39.70,-0.00Q34.90,-0.00 31.49,-3.41Q28.56,-1.82 24.31,-0.91Q20.06,-0.00 15.07,-0.00ZM19.68,9.94Q18.62,9.12 17.76,8.33Q16.90,7.54 16.22,6.77Q18.38,4.70 19.58,3.26Q21.26,5.04 22.75,6.43Q21.60,8.02 19.68,9.94Z" fill="rgb(0,0,0)" fill-opacity="1.00" transform="translate(130.06,70.40)"/>
  <path d="M0.00,-0.00Q-0.38,-0.00 -0.38,-0.38L-0.38,-3.26Q-0.38,-3.65 0.00,-3.65Q3.31,-3.65 5.81,-4.01Q8.30,-4.37 10.22,-4.90Q12.19,-5.42 14.16,-6.48Q13.30,-9.17 10.85,-11.47Q9.60,-12.62 7.94,-13.73Q6.29,-14.83 4.13,-15.89Q3.55,-15.74 2.93,-15.74Q1.68,-15.74 0.84,-16.63Q0.00,-17.52 0.00,-18.86Q0.00,-19.58 0.24,-20.62Q0.48,-21.65 0.79,-22.49Q1.10,-23.33 1.25,-23.42Q4.46,-25.10 6.82,-26.26Q9.17,-27.41 11.06,-28.27Q12.96,-29.14 14.69,-29.88Q16.42,-30.62 18.34,-31.39Q19.06,-30.82 19.06,-29.57Q19.06,-28.46 18.58,-27.84Q18.10,-27.22 16.99,-26.78Q12.10,-24.72 8.28,-23.06Q4.46,-21.41 1.78,-20.16Q5.42,-19.25 8.76,-17.21Q12.10,-15.17 14.06,-12.62Q16.08,-10.13 16.08,-7.87Q16.08,-3.94 11.90,-1.92Q9.89,-1.01 6.94,-0.50Q3.98,-0.00 0.00,-0.00Z" fill="rgb(0,0,0)" fill-opacity="1.00" transform="translate(169.28,70.40)"/>
  <path d="M15.36,-0.00Q3.26,-0.00 3.26,-8.16Q3.26,-9.70 3.43,-10.99Q3.60,-12.29 3.94,-13.44L5.66,-13.44Q5.57,-12.86 5.52,-12.26Q5.47,-11.66 5.47,-11.09Q5.47,-8.16 6.55,-6.70Q7.63,-5.23 10.03,-4.42Q11.28,-4.08 12.86,-3.86Q14.45,-3.65 16.42,-3.65Q18.72,-3.65 20.86,-3.86Q22.99,-4.08 25.01,-4.46Q23.09,-6.48 23.09,-8.78Q23.09,-9.50 23.23,-10.54Q23.38,-11.57 23.57,-12.50Q23.76,-13.44 23.95,-13.78Q25.20,-16.08 27.19,-17.42Q29.18,-18.77 31.54,-18.77Q32.78,-18.77 33.96,-17.52Q35.14,-16.27 35.86,-14.26Q36.58,-12.19 36.58,-10.13Q36.58,-6.62 33.79,-4.18Q35.18,-3.94 36.67,-3.79Q38.16,-3.65 39.65,-3.65Q40.03,-3.65 40.03,-3.26L40.03,-0.38Q40.03,-0.00 39.65,-0.00Q33.65,-0.00 29.81,-1.92Q27.46,-1.06 23.69,-0.53Q19.92,-0.00 15.36,-0.00ZM29.33,-5.71Q32.78,-7.01 34.70,-8.69Q34.56,-9.89 33.96,-11.26Q33.36,-12.62 32.50,-13.63Q31.63,-14.69 31.10,-14.69Q30.19,-14.69 29.04,-13.92Q27.89,-13.15 26.78,-11.93Q25.68,-10.70 24.91,-9.22Q25.87,-8.11 26.98,-7.22Q28.08,-6.34 29.33,-5.71ZM30.38,-21.22Q28.27,-22.80 26.93,-24.34Q29.38,-26.78 30.29,-27.84Q31.06,-27.02 31.85,-26.23Q32.64,-25.44 33.46,-24.72Q32.35,-23.14 30.38,-21.22Z" fill="rgb(0,0,0)" fill-opacity="1.00" transform="translate(199.81,70.40)"/>
  <path d="M0.00,-0.00Q-0.38,-0.00 -0.38,-0.38L-0.38,-3.26Q-0.38,-3.65 0.00,-3.65Q2.35,-3.65 4.63,-3.86Q6.91,-4.08 8.78,-4.49Q10.66,-4.90 11.76,-5.42Q11.52,-6.38 11.09,-7.70Q10.66,-9.02 9.98,-10.70Q9.55,-11.95 9.31,-12.74Q9.07,-13.54 9.07,-13.92Q9.07,-14.98 9.94,-16.08Q10.80,-17.18 12.24,-17.95Q12.86,-15.17 13.25,-13.37Q13.63,-11.57 13.82,-10.27Q14.02,-8.98 14.02,-7.54Q14.02,-5.86 12.38,-2.64Q11.09,-1.87 9.05,-1.27Q7.01,-0.67 4.66,-0.34Q2.30,-0.00 0.00,-0.00ZM11.86,8.74Q9.84,7.15 8.74,5.81Q9.79,4.80 11.81,2.59Q12.05,2.78 12.77,3.50Q13.49,4.22 14.78,5.47Q14.30,6.14 13.58,6.96Q12.86,7.78 11.86,8.74ZM4.70,9.46Q2.54,7.73 1.49,6.53Q2.16,5.95 2.93,5.14Q3.70,4.32 4.61,3.26Q4.80,3.50 5.54,4.22Q6.29,4.94 7.54,6.14Q7.10,6.86 6.38,7.68Q5.66,8.50 4.70,9.46Z" fill="rgb(0,0,0)" fill-opacity="1.00" transform="translate(239.03,70.40)"/>
  <path d="M14.78,-4.80Q13.73,-7.25 12.58,-9.41Q11.42,-11.57 10.08,-13.44Q9.07,-14.98 7.92,-16.32Q6.77,-17.66 5.52,-18.86L3.74,-18.86Q2.64,-19.97 2.14,-20.90Q1.63,-21.84 1.63,-23.04Q1.63,-24.05 2.18,-24.67Q2.74,-25.30 3.46,-25.63Q4.99,-24.67 6.46,-23.14Q7.92,-21.60 9.26,-19.78Q10.61,-17.95 11.74,-15.96Q12.86,-13.97 13.63,-12.10Q13.87,-11.47 14.35,-10.18Q14.83,-8.88 15.29,-7.58Q15.74,-6.29 15.98,-5.57Z" fill="rgb(0,0,0)" fill-opacity="1.00" transform="translate(266.11,70.40)"/>
  <path d="M2.69,-0.00L2.54,-1.68Q5.23,-2.35 7.39,-2.95Q9.55,-3.55 11.23,-4.32Q12.91,-5.04 14.21,-6.02Q15.50,-7.01 16.51,-8.40Q17.66,-9.98 18.43,-12.29Q19.20,-14.59 19.68,-17.38Q20.21,-20.16 20.45,-23.26Q20.69,-26.35 20.78,-29.52Q21.70,-30.48 22.46,-31.06Q23.23,-31.63 24.00,-32.21Q24.19,-28.61 24.29,-25.20Q24.38,-21.79 24.43,-18.38Q24.48,-15.31 24.53,-13.10Q24.58,-10.90 24.62,-9.02Q24.67,-7.15 24.72,-4.94Q25.15,-4.66 25.63,-4.46Q26.11,-4.27 26.64,-4.08Q27.94,-3.65 29.71,-3.65Q30.10,-3.65 30.10,-3.26L30.10,-0.38Q30.10,-0.00 29.71,-0.00Q28.13,-0.00 26.62,-0.43Q25.10,-0.86 24.10,-1.80Q23.09,-2.74 22.90,-4.18Q22.61,-6.53 22.39,-8.59Q22.18,-10.66 22.03,-12.62Q22.03,-13.10 21.94,-14.40Q21.84,-15.70 21.77,-17.11Q21.70,-18.53 21.60,-19.44Q21.46,-18.05 21.19,-16.01Q20.93,-13.97 20.59,-12.05Q20.26,-10.13 19.92,-8.98Q19.44,-7.44 18.91,-6.19Q18.38,-4.94 17.71,-3.98Q15.65,-1.01 12.43,-0.58Q9.79,-0.29 7.51,-0.17Q5.23,-0.05 2.69,-0.00Z" fill="rgb(0,0,0)" fill-opacity="1.00" transform="translate(266.11,70.40)"/>
  <path d="M0.00,-0.00Q-0.38,-0.00 -0.38,-0.38L-0.38,-3.26Q-0.38,-3.65 0.00,-3.65Q3.07,-3.65 6.00,-3.79Q4.85,-4.56 3.98,-5.86Q3.12,-7.15 3.12,-8.64Q3.12,-10.70 4.22,-12.96Q5.33,-15.22 7.10,-16.56Q8.88,-17.95 10.80,-17.95Q12.48,-17.95 13.99,-17.14Q15.50,-16.32 17.52,-14.54L16.66,-13.01Q14.74,-13.73 13.90,-13.92Q13.06,-14.11 12.00,-14.11Q8.98,-14.11 5.86,-12.34Q5.86,-10.27 6.84,-8.59Q7.82,-6.91 9.74,-5.86Q11.62,-4.85 14.21,-4.70Q15.46,-4.94 16.54,-5.23Q17.62,-5.52 18.98,-6.02Q20.35,-6.53 22.37,-7.30Q22.99,-6.72 22.99,-5.57Q22.99,-3.98 21.94,-3.36Q21.74,-3.26 20.74,-3.00Q19.73,-2.74 18.53,-2.45Q13.58,-1.20 9.26,-0.60Q4.94,-0.00 0.00,-0.00Z" fill="rgb(0,0,0)" fill-opacity="1.00" transform="translate(295.39,70.40)"/>
  <path d="M14.78,-4.80Q13.73,-7.25 12.58,-9.41Q11.42,-11.57 10.08,-13.44Q9.07,-14.98 7.92,-16.32Q6.77,-17.66 5.52,-18.86L3.74,-18.86Q2.64,-19.97 2.14,-20.90Q1.63,-21.84 1.63,-23.04Q1.63,-24.05 2.18,-24.67Q2.74,-25.30 3.46,-25.63Q4.99,-24.67 6.46,-23.14Q7.92,-21.60 9.26,-19.78Q10.61,-17.95 11.74,-15.96Q12.86,-13.97 13.63,-12.10Q13.87,-11.47 14.35,-10.18Q14.83,-8.88 15.29,-7.58Q15.74,-6.29 15.98,-5.57Z" fill="rgb(0,0,0)" fill-opacity="1.00" transform="translate(319.62,70.40)"/>
  <path d="M2.69,-0.00L2.54,-1.68Q5.23,-2.35 7.39,-2.95Q9.55,-3.55 11.23,-4.32Q12.91,-5.04 14.21,-6.02Q15.50,-7.01 16.51,-8.40Q17.66,-9.98 18.43,-12.29Q19.20,-14.59 19.68,-17.38Q20.21,-20.16 20.45,-23.26Q20.69,-26.35 20.78,-29.52Q21.70,-30.48 22.46,-31.06Q23.23,-31.63 24.00,-32.21Q24.19,-28.61 24.29,-25.20Q24.38,-21.79 24.43,-18.38Q24.48,-15.31 24.53,-13.10Q24.58,-10.90 24.62,-9.02Q24.67,-7.15 24.72,-4.94Q25.15,-4.66 25.63,-4.46Q26.11,-4.27 26.64,-4.08Q27.94,-3.65 29.71,-3.65Q30.10,-3.65 30.10,-3.26L30.10,-0.38Q30.10,-0.00 29.71,-0.00Q28.13,-0.00 26.62,-0.43Q25.10,-0.86 24.10,-1.80Q23.09,-2.74 22.90,-4.18Q22.61,-6.53 22.39,-8.59Q22.18,-10.66 22.03,-12.62Q22.03,-13.10 21.94,-14.40Q21.84,-15.70 21.77,-17.11Q21.70,-18.53 21.60,-19.44Q21.46,-18.05 21.19,-16.01Q20.93,-13.97 20.59,-12.05Q20.26,-10.13 19.92,-8.98Q19.44,-7.44 18.91,-6.19Q18.38,-4.94 17.71,-3.98Q15.65,-1.01 12.43,-0.58Q9.79,-0.29 7.51,-0.17Q5.23,-0.05 2.69,-0.00Z" fill="rgb(0,0,0)" fill-opacity="1.00" transform="translate(319.62,70.40)"/>
  <path d="M17.18,-0.00Q15.26,-0.00 13.15,-0.36Q11.04,-0.72 9.07,-1.37Q7.10,-2.02 5.62,-2.88Q4.51,-1.34 3.17,-0.67Q1.82,-0.00 0.00,-0.00Q-0.38,-0.00 -0.38,-0.38L-0.38,-3.26Q-0.38,-3.65 0.00,-3.65Q1.82,-3.65 3.07,-4.54Q4.32,-5.42 5.23,-7.20Q6.10,-8.78 6.60,-9.82Q7.10,-10.85 7.54,-11.66Q7.97,-12.48 8.64,-13.34Q9.84,-14.93 11.09,-15.62Q12.34,-16.32 13.73,-16.32Q15.12,-16.32 16.51,-14.59Q17.90,-12.86 18.77,-10.18Q19.63,-7.54 19.63,-4.99Q19.63,-3.50 19.10,-2.30Q18.58,-1.10 17.18,-0.00ZM16.13,-3.65Q16.08,-5.86 15.46,-7.99Q14.83,-10.13 14.06,-11.23Q13.54,-12.05 12.96,-12.05Q11.18,-12.05 9.65,-9.89Q9.26,-9.31 8.71,-8.38Q8.16,-7.44 7.49,-6.05Q10.94,-4.22 16.13,-3.65Z" fill="rgb(0,0,0)" fill-opacity="1.00" transform="translate(348.91,70.40)"/>
</svg>
