<?xml version="1.0" encoding="UTF-8"?>
<svg xmlns="http://www.w3.org/2000/svg" viewBox="0 0 410.07 88.00" width="410" height="88">
  <path d="M30.86,-0.00L26.54,-0.00L26.54,-15.98L8.98,-15.98L8.98,-0.00L4.66,-0.00L4.66,-34.27L8.98,-34.27L8.98,-19.78L26.54,-19.78L26.54,-34.27L30.86,-34.27Z" fill="rgb(0,0,0)" fill-opacity="1.00" transform="translate(20.00,70.40)"/>
  <path d="M14.02,-26.21Q17.33,-26.21 19.70,-24.77Q22.08,-23.33 23.35,-20.71Q24.62,-18.10 24.62,-14.59L24.62,-12.05L7.01,-12.05Q7.10,-7.68 9.24,-5.40Q11.38,-3.12 15.22,-3.12Q17.66,-3.12 19.56,-3.58Q21.46,-4.03 23.47,-4.90L23.47,-1.20Q21.50,-0.34 19.58,0.07Q17.66,0.48 15.02,0.48Q11.38,0.48 8.57,-1.01Q5.76,-2.50 4.20,-5.45Q2.64,-8.40 2.64,-12.67Q2.64,-16.90 4.06,-19.92Q5.47,-22.94 8.04,-24.58Q10.61,-26.21 14.02,-26.21ZM13.97,-22.75Q10.94,-22.75 9.19,-20.81Q7.44,-18.86 7.10,-15.41L20.21,-15.41Q20.16,-18.67 18.67,-20.71Q17.18,-22.75 13.97,-22.75Z" fill="rgb(0,0,0)" fill-opacity="1.00" transform="translate(55.57,70.40)"/>
  <path d="M8.30,-0.00L4.08,-0.00L4.08,-36.48L8.30,-36.48Z" fill="rgb(0,0,0)" fill-opacity="1.00" transform="translate(82.64,70.40)"/>
  <path d="M8.30,-0.00L4.08,-0.00L4.08,-36.48L8.30,-36.48Z" fill="rgb(0,0,0)" fill-opacity="1.00" transform="translate(95.02,70.40)"/>
  <path d="M26.45,-12.91Q26.45,-6.53 23.21,-3.02Q19.97,0.48 14.45,0.48Q11.04,0.48 8.38,-1.08Q5.71,-2.64 4.18,-5.64Q2.64,-8.64 2.64,-12.91Q2.64,-19.30 5.86,-22.75Q9.07,-26.21 14.59,-26.21Q18.10,-26.21 20.76,-24.65Q23.42,-23.09 24.94,-20.14Q26.45,-17.18 26.45,-12.91ZM7.01,-12.91Q7.01,-8.35 8.81,-5.69Q10.61,-3.02 14.54,-3.02Q18.43,-3.02 20.26,-5.69Q22.08,-8.35 22.08,-12.91Q22.08,-17.47 20.26,-20.06Q18.43,-22.66 14.50,-22.66Q10.56,-22.66 8.78,-20.06Q7.01,-17.47 7.01,-12.91Z" fill="rgb(0,0,0)" fill-opacity="1.00" transform="translate(107.41,70.40)"/>
  <path d="M9.22,-5.04Q8.59,-2.50 7.42,0.55Q6.24,3.60 5.09,6.19L1.97,6.19Q2.64,3.46 3.34,0.19Q4.03,-3.07 4.37,-5.57L8.88,-5.57Z" fill="rgb(0,0,0)" fill-opacity="1.00" transform="translate(136.45,70.40)"/>
  <path d="M6.24,-35.38Q7.20,-35.38 7.94,-34.73Q8.69,-34.08 8.69,-32.69Q8.69,-31.34 7.94,-30.67Q7.20,-30.00 6.24,-30.00Q5.18,-30.00 4.46,-30.67Q3.74,-31.34 3.74,-32.69Q3.74,-34.08 4.46,-34.73Q5.18,-35.38 6.24,-35.38ZM8.30,-25.73L8.30,-0.00L4.08,-0.00L4.08,-25.73ZM4.75,5.57Q4.75,7.73 6.91,7.73Q7.73,7.73 8.28,7.61Q8.83,7.49 9.22,7.44L9.22,10.13Q8.54,10.32 7.87,10.44Q7.20,10.56 6.24,10.56Q3.70,10.56 2.50,9.36Q1.30,8.16 1.30,6.05Q1.30,4.66 1.99,3.36Q2.69,2.06 3.72,1.01Q4.75,-0.05 5.71,-0.72L8.02,-0.00Q6.38,1.54 5.57,2.81Q4.75,4.08 4.75,5.57Z" fill="rgb(0,0,0)" fill-opacity="1.00" transform="translate(161.79,70.40)"/>
  <path d="M6.24,-35.38Q7.20,-35.38 7.94,-34.73Q8.69,-34.08 8.69,-32.69Q8.69,-31.34 7.94,-30.67Q7.20,-30.00 6.24,-30.00Q5.18,-30.00 4.46,-30.67Q3.74,-31.34 3.74,-32.69Q3.74,-34.08 4.46,-34.73Q5.18,-35.38 6.24,-35.38ZM8.30,-25.73L8.30,-0.00L4.08,-0.00L4.08,-25.73ZM16.13,-32.69Q16.13,-34.08 16.85,-34.73Q17.57,-35.38 18.62,-35.38Q19.58,-35.38 20.33,-34.73Q21.07,-34.08 21.07,-32.69Q21.07,-31.34 20.33,-30.67Q19.58,-30.00 18.62,-30.00Q17.57,-30.00 16.85,-30.67Q16.13,-31.34 16.13,-32.69ZM13.44,11.52Q12.24,11.52 11.33,11.35Q10.42,11.18 9.74,10.94L9.74,7.54Q10.46,7.73 11.23,7.87Q12.00,8.02 12.91,8.02Q14.45,8.02 15.46,7.18Q16.46,6.34 16.46,3.98L16.46,-25.73L20.69,-25.73L20.69,3.84Q20.69,7.44 18.96,9.48Q17.23,11.52 13.44,11.52Z" fill="rgb(0,0,0)" fill-opacity="1.00" transform="translate(175.83,70.40)"/>
  <path d="M16.46,-26.21Q21.07,-26.21 23.42,-23.98Q25.78,-21.74 25.78,-16.75L25.78,-0.00L21.60,-0.00L21.60,-16.46Q21.60,-22.66 15.84,-22.66Q11.57,-22.66 9.94,-20.26Q8.30,-17.86 8.30,-13.34L8.30,-0.00L4.08,-0.00L4.08,-25.73L7.49,-25.73L8.11,-22.22L8.35,-22.22Q9.60,-24.24 11.81,-25.22Q14.02,-26.21 16.46,-26.21ZM21.94,-36.29Q21.36,-35.42 20.16,-34.06Q18.96,-32.69 17.59,-31.32Q16.22,-29.95 15.07,-29.09L12.29,-29.09L12.29,-29.66Q13.01,-30.58 13.85,-31.82Q14.69,-33.07 15.50,-34.39Q16.32,-35.71 16.85,-36.77L21.94,-36.77Z" fill="rgb(0,0,0)" fill-opacity="1.00" transform="translate(190.07,70.40)"/>
  <path d="M34.56,-17.18Q34.56,-11.86 32.76,-7.90Q30.96,-3.94 27.46,-1.73Q23.95,0.48 18.77,0.48Q13.44,0.48 9.91,-1.73Q6.38,-3.94 4.66,-7.92Q2.93,-11.90 2.93,-17.23Q2.93,-22.51 4.66,-26.45Q6.38,-30.38 9.91,-32.59Q13.44,-34.80 18.82,-34.80Q23.95,-34.80 27.46,-32.62Q30.96,-30.43 32.76,-26.47Q34.56,-22.51 34.56,-17.18ZM7.49,-17.18Q7.49,-10.70 10.22,-6.98Q12.96,-3.26 18.77,-3.26Q24.62,-3.26 27.31,-6.98Q30.00,-10.70 30.00,-17.18Q30.00,-23.66 27.31,-27.34Q24.62,-31.01 18.82,-31.01Q13.01,-31.01 10.25,-27.34Q7.49,-23.66 7.49,-17.18ZM27.36,-44.83Q26.88,-44.02 25.78,-42.62Q24.67,-41.23 23.38,-39.86Q22.08,-38.50 20.98,-37.63L18.58,-37.63L18.58,-38.21Q19.25,-39.12 20.02,-40.37Q20.78,-41.62 21.53,-42.94Q22.27,-44.26 22.75,-45.31L27.36,-45.31ZM18.91,-44.83Q18.43,-44.02 17.33,-42.62Q16.22,-41.23 14.93,-39.86Q13.63,-38.50 12.53,-37.63L10.13,-37.63L10.13,-38.21Q11.14,-39.60 12.34,-41.64Q13.54,-43.68 14.30,-45.31L18.91,-45.31Z" fill="rgb(0,0,0)" fill-opacity="1.00" transform="translate(215.17,70.40)"/>
  <path d="M23.14,-0.00L10.75,-0.00L10.75,-2.50L14.78,-3.41L14.78,-30.82L10.75,-31.78L10.75,-34.27L23.14,-34.27L23.14,-31.78L19.10,-30.82L19.10,-3.41L23.14,-2.50ZM0.48,-26.11L0.48,-26.69L2.78,-34.27L7.87,-34.27L7.87,-33.79L3.31,-26.11Z" fill="rgb(0,0,0)" fill-opacity="1.00" transform="translate(234.75,70.40)"/>
  <path d="M9.22,-5.04Q8.59,-2.50 7.42,0.55Q6.24,3.60 5.09,6.19L1.97,6.19Q2.64,3.46 3.34,0.19Q4.03,-3.07 4.37,-5.57L8.88,-5.57Z" fill="rgb(0,0,0)" fill-opacity="1.00" transform="translate(255.82,70.40)"/>
  <path d="M2.40,-18.34L2.40,-21.74L19.06,-21.74L19.06,-18.34ZM19.06,-12.14L19.06,-8.74L2.40,-8.74L2.40,-12.14Z" fill="rgb(0,0,0)" fill-opacity="1.00" transform="translate(329.16,70.40)"/>
  <path d="M7.82,-9.65L5.09,-9.65L3.89,-34.27L9.02,-34.27ZM3.46,-2.59Q3.46,-4.37 4.32,-5.09Q5.18,-5.81 6.43,-5.81Q7.63,-5.81 8.52,-5.09Q9.41,-4.37 9.41,-2.59Q9.41,-0.86 8.52,-0.10Q7.63,0.67 6.43,0.67Q5.18,0.67 4.32,-0.10Q3.46,-0.86 3.46,-2.59Z" fill="rgb(0,0,0)" fill-opacity="1.00" transform="translate(377.16,70.40)"/>
</svg>
