<?xml version="1.0" encoding="UTF-8"?>
<svg xmlns="http://www.w3.org/2000/svg" viewBox="0 0 727.07 88.00" width="727" height="88">
  <path d="M0.96,-0.00L0.96,-0.48L4.32,-1.20L16.56,-33.98L17.42,-33.98L29.71,-1.20L33.07,-0.48L33.07,-0.00L25.58,-0.00L25.58,-0.48L28.99,-1.15L17.23,-32.64L16.80,-32.64L6.43,-4.94Q6.14,-4.27 6.00,-3.65Q5.86,-3.02 5.86,-2.59Q5.86,-1.82 6.29,-1.34Q6.72,-0.86 7.73,-0.67Q8.74,-0.48 10.42,-0.48L10.42,-0.00ZM9.36,-13.92L9.36,-14.40L24.53,-14.64L24.53,-13.92Z" fill="rgb(0,0,0)" fill-opacity="1.00" transform="translate(20.00,70.40)"/>
  <path d="M16.13,-0.00L3.84,-32.78L0.48,-33.50L0.48,-33.98L7.97,-33.98L7.97,-33.50L4.56,-32.83L16.32,-1.34L16.75,-1.34L27.12,-29.04Q27.41,-29.81 27.55,-30.43Q27.70,-31.06 27.70,-31.49Q27.70,-32.64 26.69,-33.07Q25.68,-33.50 23.14,-33.50L23.14,-33.98L32.59,-33.98L32.59,-33.50L29.23,-32.78L16.99,-0.00Z" fill="rgb(0,0,0)" fill-opacity="1.00" transform="translate(54.03,70.40)"/>
  <path d="M0.96,-0.00L0.96,-0.48L4.32,-1.20L16.56,-33.98L17.42,-33.98L29.71,-1.20L33.07,-0.48L33.07,-0.00L25.58,-0.00L25.58,-0.48L28.99,-1.15L17.23,-32.64L16.80,-32.64L6.43,-4.94Q6.14,-4.27 6.00,-3.65Q5.86,-3.02 5.86,-2.59Q5.86,-1.82 6.29,-1.34Q6.72,-0.86 7.73,-0.67Q8.74,-0.48 10.42,-0.48L10.42,-0.00ZM9.36,-13.92L9.36,-14.40L24.53,-14.64L24.53,-13.92Z" fill="rgb(0,0,0)" fill-opacity="1.00" transform="translate(87.10,70.40)"/>
  <path d="M16.46,0.72Q14.30,0.72 12.05,0.17Q9.79,-0.38 7.61,-1.42Q5.42,-2.45 3.36,-3.89L4.32,-13.44L4.80,-13.44L4.51,-7.87Q4.42,-5.47 5.88,-3.70Q7.34,-1.92 10.08,-0.96Q12.82,-0.00 16.46,-0.00Q20.11,-0.00 22.68,-0.96Q25.25,-1.92 26.62,-3.72Q27.98,-5.52 27.98,-8.02Q27.98,-10.32 26.88,-11.93Q25.78,-13.54 23.23,-14.81Q20.69,-16.08 16.32,-17.28Q11.86,-18.48 9.22,-19.78Q6.58,-21.07 5.45,-22.80Q4.32,-24.53 4.32,-26.93Q4.32,-28.75 5.11,-30.19Q5.90,-31.63 7.39,-32.64Q8.88,-33.65 11.02,-34.18Q13.15,-34.70 15.89,-34.70Q18.48,-34.70 20.74,-34.13Q22.99,-33.55 24.86,-32.54Q26.74,-31.54 28.13,-30.24L27.17,-21.65L26.69,-21.65L26.83,-25.87Q26.93,-28.61 25.70,-30.41Q24.48,-32.21 22.01,-33.10Q19.54,-33.98 15.89,-33.98Q12.48,-33.98 10.06,-33.14Q7.63,-32.30 6.34,-30.72Q5.04,-29.14 5.04,-26.93Q5.04,-24.72 6.10,-23.16Q7.15,-21.60 9.65,-20.40Q12.14,-19.20 16.42,-18.10Q19.87,-17.18 22.22,-16.20Q24.58,-15.22 26.02,-14.04Q27.46,-12.86 28.08,-11.40Q28.70,-9.94 28.70,-8.02Q28.70,-6.38 28.18,-5.02Q27.65,-3.65 26.62,-2.59Q25.58,-1.54 24.10,-0.79Q22.61,-0.05 20.69,0.34Q18.77,0.72 16.46,0.72Z" fill="rgb(0,0,0)" fill-opacity="1.00" transform="translate(121.14,70.40)"/>
  <path d="M13.10,-0.00L13.10,-0.48L16.46,-1.20L16.46,-33.26L8.40,-33.26Q6.86,-33.26 5.90,-32.88Q4.94,-32.50 4.56,-31.42Q4.18,-30.34 4.32,-28.27L4.75,-22.27L4.03,-22.27L2.88,-33.98L30.77,-33.98L29.62,-22.27L28.90,-22.27L29.38,-27.98Q29.57,-30.19 29.18,-31.32Q28.80,-32.45 27.84,-32.86Q26.88,-33.26 25.25,-33.26L17.18,-33.26L17.18,-1.20L20.54,-0.48L20.54,-0.00Z" fill="rgb(0,0,0)" fill-opacity="1.00" transform="translate(153.20,70.40)"/>
  <path d="M36.38,-0.00L26.40,-26.59L26.78,-27.50L36.58,-1.34L37.01,-1.34L47.38,-29.04Q47.66,-29.81 47.81,-30.41Q47.95,-31.01 47.95,-31.49Q47.95,-32.26 47.52,-32.69Q47.09,-33.12 46.10,-33.31Q45.12,-33.50 43.39,-33.50L43.39,-33.98L52.85,-33.98L52.85,-33.50L49.49,-32.78L37.25,-0.00ZM16.13,-0.00L3.84,-32.78L0.48,-33.50L0.48,-33.98L7.97,-33.98L7.97,-33.50L4.56,-32.83L16.32,-1.34L16.75,-1.34L27.12,-29.04Q27.41,-29.81 27.55,-30.43Q27.70,-31.06 27.70,-31.49Q27.70,-32.64 26.69,-33.07Q25.68,-33.50 23.14,-33.50L23.14,-33.98L32.59,-33.98L32.59,-33.50L29.23,-32.78L16.99,-0.00Z" fill="rgb(0,0,0)" fill-opacity="1.00" transform="translate(201.25,70.40)"/>
  <path d="M14.50,-24.72Q16.94,-24.72 18.65,-24.00Q20.35,-23.28 21.46,-21.79Q22.56,-20.30 23.06,-18.00Q23.57,-15.70 23.57,-12.58L23.57,-1.78Q23.57,-0.82 24.02,-0.41Q24.48,-0.00 25.10,-0.00Q25.92,-0.00 26.86,-0.43Q27.79,-0.86 28.61,-1.49L28.61,-0.96Q28.08,-0.43 27.46,-0.05Q26.83,0.34 26.18,0.53Q25.54,0.72 24.91,0.72Q23.86,0.72 23.38,0.02Q22.90,-0.67 22.90,-2.06Q22.90,-3.65 22.90,-4.39Q22.90,-5.14 22.90,-5.50Q22.90,-5.86 22.90,-6.24L22.42,-6.53Q21.50,-4.80 20.06,-3.46Q18.62,-2.11 16.87,-1.18Q15.12,-0.24 13.27,0.24Q11.42,0.72 9.74,0.72Q8.02,0.72 6.58,0.22Q5.14,-0.29 4.25,-1.42Q3.36,-2.54 3.36,-4.37Q3.36,-8.45 8.21,-10.51Q13.06,-12.58 22.90,-12.58Q22.90,-16.51 22.06,-19.03Q21.22,-21.55 19.37,-22.78Q17.52,-24.00 14.50,-24.00Q12.29,-24.00 10.56,-23.59Q8.83,-23.18 7.87,-22.66Q6.91,-22.13 6.91,-21.65Q6.91,-21.46 7.20,-21.24Q7.49,-21.02 8.26,-20.64Q9.46,-20.02 9.46,-18.96Q9.46,-18.05 8.69,-17.59Q7.92,-17.14 6.96,-17.14Q6.05,-17.14 5.26,-17.62Q4.46,-18.10 4.46,-19.10Q4.46,-20.11 5.30,-21.10Q6.14,-22.08 7.56,-22.92Q8.98,-23.76 10.78,-24.24Q12.58,-24.72 14.50,-24.72ZM22.90,-11.90Q16.61,-11.90 12.41,-11.06Q8.21,-10.22 6.12,-8.57Q4.03,-6.91 4.03,-4.37Q4.03,-2.78 4.80,-1.82Q5.57,-0.86 6.86,-0.43Q8.16,-0.00 9.74,-0.00Q11.52,-0.00 13.49,-0.55Q15.46,-1.10 17.30,-2.23Q19.15,-3.36 20.64,-4.99Q22.13,-6.62 22.90,-8.78Z" fill="rgb(0,0,0)" fill-opacity="1.00" transform="translate(254.58,70.40)"/>
  <path d="M6.91,-0.96L9.79,-0.48L9.79,-0.00L3.36,-0.00L3.36,-0.48L6.24,-0.96L6.24,-33.79L2.88,-33.79L2.88,-34.32L6.91,-35.76Z" fill="rgb(0,0,0)" fill-opacity="1.00" transform="translate(284.62,70.40)"/>
  <path d="M6.91,-0.96L9.79,-0.48L9.79,-0.00L3.36,-0.00L3.36,-0.48L6.24,-0.96L6.24,-33.79L2.88,-33.79L2.88,-34.32L6.91,-35.76Z" fill="rgb(0,0,0)" fill-opacity="1.00" transform="translate(296.82,70.40)"/>
  <path d="M2.88,-0.00L2.88,-0.48L6.24,-0.96L6.24,-23.04L2.88,-23.04L2.88,-23.52L6.24,-24.00Q6.05,-25.97 5.95,-27.67Q5.86,-29.38 5.86,-30.58Q5.86,-32.40 6.36,-33.53Q6.86,-34.66 7.92,-35.21Q8.98,-35.76 10.61,-35.76Q11.66,-35.76 12.55,-35.50Q13.44,-35.23 14.09,-34.70Q14.74,-34.18 15.10,-33.46Q15.46,-32.74 15.46,-31.87Q15.46,-31.20 15.10,-30.77Q14.74,-30.34 14.16,-30.12Q13.58,-29.90 12.96,-29.90Q12.05,-29.90 11.26,-30.36Q10.46,-30.82 10.46,-31.73Q10.46,-32.35 10.73,-32.81Q10.99,-33.26 11.33,-33.60Q11.66,-33.94 11.93,-34.22Q12.19,-34.51 12.19,-34.80Q12.19,-35.04 11.86,-35.14Q11.52,-35.23 10.61,-35.23Q8.50,-35.23 7.51,-34.10Q6.53,-32.98 6.53,-30.58Q6.53,-29.42 6.58,-28.27Q6.62,-27.12 6.72,-26.04Q6.82,-24.96 6.91,-24.00L13.39,-23.52L13.39,-23.04L6.91,-23.04L6.91,-0.96L10.75,-0.48L10.75,-0.00Z" fill="rgb(0,0,0)" fill-opacity="1.00" transform="translate(309.01,70.40)"/>
  <path d="M6.91,-0.96L9.79,-0.48L9.79,-0.00L3.36,-0.00L3.36,-0.48L6.24,-0.96L6.24,-33.79L2.88,-33.79L2.88,-34.32L6.91,-35.76Z" fill="rgb(0,0,0)" fill-opacity="1.00" transform="translate(325.42,70.40)"/>
  <path d="M14.21,-24.72Q16.85,-24.72 18.94,-23.86Q21.02,-22.99 22.46,-21.31Q23.90,-19.63 24.65,-17.23Q25.39,-14.83 25.39,-11.81Q25.39,-8.88 24.62,-6.55Q23.86,-4.22 22.42,-2.59Q20.98,-0.96 18.91,-0.12Q16.85,0.72 14.21,0.72Q11.62,0.72 9.55,-0.12Q7.49,-0.96 6.05,-2.59Q4.61,-4.22 3.86,-6.55Q3.12,-8.88 3.12,-11.81Q3.12,-14.83 3.86,-17.23Q4.61,-19.63 6.05,-21.31Q7.49,-22.99 9.55,-23.86Q11.62,-24.72 14.21,-24.72ZM14.26,-24.00Q10.99,-24.00 8.64,-22.56Q6.29,-21.12 5.04,-18.38Q3.79,-15.65 3.79,-11.81Q3.79,-9.02 4.49,-6.84Q5.18,-4.66 6.55,-3.12Q7.92,-1.58 9.84,-0.79Q11.76,-0.00 14.21,-0.00Q16.70,-0.00 18.65,-0.79Q20.59,-1.58 21.96,-3.12Q23.33,-4.66 24.02,-6.84Q24.72,-9.02 24.72,-11.81Q24.72,-14.69 24.02,-16.94Q23.33,-19.20 21.96,-20.78Q20.59,-22.37 18.65,-23.18Q16.70,-24.00 14.26,-24.00Z" fill="rgb(0,0,0)" fill-opacity="1.00" transform="translate(337.62,70.40)"/>
  <path d="M20.98,-19.63L28.13,-1.30L28.56,-1.30L35.52,-20.98Q35.57,-21.07 35.59,-21.24Q35.62,-21.41 35.62,-21.55Q35.62,-22.13 35.35,-22.49Q35.09,-22.85 34.46,-23.09Q33.84,-23.33 32.81,-23.42Q31.78,-23.52 30.29,-23.52L30.29,-24.00L40.27,-24.00L40.27,-23.52L36.96,-23.04L28.66,-0.00L27.94,-0.00L20.59,-18.67ZM13.54,-0.00L4.46,-23.04L1.20,-23.52L1.20,-24.00L8.69,-24.00L8.69,-23.52L5.23,-23.09L13.73,-1.30L14.16,-1.30L21.12,-20.98Q21.17,-21.07 21.19,-21.24Q21.22,-21.41 21.22,-21.55Q21.22,-22.13 20.95,-22.49Q20.69,-22.85 20.06,-23.09Q19.44,-23.33 18.41,-23.42Q17.38,-23.52 15.89,-23.52L15.89,-24.00L25.87,-24.00L25.87,-23.52L22.56,-23.04L14.26,-0.00Z" fill="rgb(0,0,0)" fill-opacity="1.00" transform="translate(366.13,70.40)"/>
  <path d="M14.88,-24.72Q18.19,-24.72 20.52,-23.35Q22.85,-21.98 24.07,-19.42Q25.30,-16.85 25.30,-13.25L3.79,-13.25L3.79,-13.73L24.62,-13.92Q24.62,-17.04 23.45,-19.30Q22.27,-21.55 20.11,-22.78Q17.95,-24.00 14.88,-24.00Q11.66,-24.00 9.14,-22.46Q6.62,-20.93 5.21,-18.19Q3.79,-15.46 3.79,-11.90Q3.79,-9.26 4.58,-7.08Q5.38,-4.90 6.79,-3.31Q8.21,-1.73 10.18,-0.86Q12.14,-0.00 14.50,-0.00Q16.42,-0.00 18.07,-0.41Q19.73,-0.82 21.10,-1.61Q22.46,-2.40 23.59,-3.62Q24.72,-4.85 25.58,-6.48L25.92,-6.00Q25.06,-4.32 23.93,-3.05Q22.80,-1.78 21.38,-0.94Q19.97,-0.10 18.24,0.31Q16.51,0.72 14.50,0.72Q12.00,0.72 9.91,-0.22Q7.82,-1.15 6.31,-2.83Q4.80,-4.51 3.96,-6.82Q3.12,-9.12 3.12,-11.90Q3.12,-14.74 3.98,-17.06Q4.85,-19.39 6.41,-21.12Q7.97,-22.85 10.13,-23.78Q12.29,-24.72 14.88,-24.72Z" fill="rgb(0,0,0)" fill-opacity="1.00" transform="translate(407.84,70.40)"/>
  <path d="M3.36,-0.00L3.36,-0.48L6.24,-0.96L6.24,-22.75L2.88,-22.75L2.88,-23.28L6.91,-24.72L6.91,-16.90L7.30,-16.51Q8.11,-18.24 8.86,-19.56Q9.60,-20.88 10.32,-21.79Q11.57,-23.38 12.79,-24.05Q14.02,-24.72 15.36,-24.72Q16.22,-24.72 16.82,-24.41Q17.42,-24.10 17.76,-23.52Q18.10,-22.94 18.10,-22.13Q18.10,-21.55 17.81,-21.02Q17.52,-20.50 16.94,-20.16Q16.37,-19.82 15.46,-19.82Q14.69,-19.82 14.06,-20.06Q13.44,-20.30 13.08,-20.76Q12.72,-21.22 12.72,-21.74Q12.72,-21.94 12.74,-22.06Q12.77,-22.18 12.77,-22.32Q12.77,-22.46 12.77,-22.56Q12.77,-22.90 12.48,-22.90Q11.86,-22.90 11.06,-21.96Q10.27,-21.02 9.46,-19.58Q8.74,-18.38 8.06,-16.87Q7.39,-15.36 6.91,-13.78L6.91,-0.96L9.79,-0.48L9.79,-0.00Z" fill="rgb(0,0,0)" fill-opacity="1.00" transform="translate(436.88,70.40)"/>
  <path d="M3.84,-0.00L3.84,-0.48L7.20,-1.20L7.20,-32.78L3.84,-33.50L3.84,-33.98L28.42,-33.98L26.78,-23.23L26.06,-23.23L26.83,-30.48Q27.02,-32.06 26.38,-32.66Q25.73,-33.26 23.90,-33.26L7.92,-33.26L7.92,-17.66L16.99,-17.66Q17.42,-17.66 17.78,-17.88Q18.14,-18.10 18.34,-18.48Q18.58,-18.86 18.67,-20.21Q18.77,-21.55 18.77,-23.90L19.25,-23.90L19.25,-12.29L18.77,-12.29L18.48,-16.94L7.92,-16.94L7.92,-0.72L24.72,-0.72Q26.35,-0.72 26.86,-1.44Q27.36,-2.16 27.12,-3.98L26.06,-11.66L26.78,-11.66L28.42,-0.00Z" fill="rgb(0,0,0)" fill-opacity="1.00" transform="translate(470.34,70.40)"/>
  <path d="M2.88,-0.00L2.88,-0.48L6.24,-0.96L6.24,-23.04L2.88,-23.04L2.88,-23.52L6.24,-24.00Q6.05,-25.97 5.95,-27.67Q5.86,-29.38 5.86,-30.58Q5.86,-32.40 6.36,-33.53Q6.86,-34.66 7.92,-35.21Q8.98,-35.76 10.61,-35.76Q11.66,-35.76 12.55,-35.50Q13.44,-35.23 14.09,-34.70Q14.74,-34.18 15.10,-33.46Q15.46,-32.74 15.46,-31.87Q15.46,-31.20 15.10,-30.77Q14.74,-30.34 14.16,-30.12Q13.58,-29.90 12.96,-29.90Q12.05,-29.90 11.26,-30.36Q10.46,-30.82 10.46,-31.73Q10.46,-32.35 10.73,-32.81Q10.99,-33.26 11.33,-33.60Q11.66,-33.94 11.93,-34.22Q12.19,-34.51 12.19,-34.80Q12.19,-35.04 11.86,-35.14Q11.52,-35.23 10.61,-35.23Q8.50,-35.23 7.51,-34.10Q6.53,-32.98 6.53,-30.58Q6.53,-29.42 6.58,-28.27Q6.62,-27.12 6.72,-26.04Q6.82,-24.96 6.91,-24.00L13.39,-23.52L13.39,-23.04L6.91,-23.04L6.91,-0.96L10.75,-0.48L10.75,-0.00Z" fill="rgb(0,0,0)" fill-opacity="1.00" transform="translate(502.35,70.40)"/>
  <path d="M2.88,-0.00L2.88,-0.48L6.24,-0.96L6.24,-23.04L2.88,-23.04L2.88,-23.52L6.24,-24.00Q6.05,-25.97 5.95,-27.67Q5.86,-29.38 5.86,-30.58Q5.86,-32.40 6.36,-33.53Q6.86,-34.66 7.92,-35.21Q8.98,-35.76 10.61,-35.76Q11.66,-35.76 12.55,-35.50Q13.44,-35.23 14.09,-34.70Q14.74,-34.18 15.10,-33.46Q15.46,-32.74 15.46,-31.87Q15.46,-31.20 15.10,-30.77Q14.74,-30.34 14.16,-30.12Q13.58,-29.90 12.96,-29.90Q12.05,-29.90 11.26,-30.36Q10.46,-30.82 10.46,-31.73Q10.46,-32.35 10.73,-32.81Q10.99,-33.26 11.33,-33.60Q11.66,-33.94 11.93,-34.22Q12.19,-34.51 12.19,-34.80Q12.19,-35.04 11.86,-35.14Q11.52,-35.23 10.61,-35.23Q8.50,-35.23 7.51,-34.10Q6.53,-32.98 6.53,-30.58Q6.53,-29.42 6.58,-28.27Q6.62,-27.12 6.72,-26.04Q6.82,-24.96 6.91,-24.00L13.39,-23.52L13.39,-23.04L6.91,-23.04L6.91,-0.96L10.75,-0.48L10.75,-0.00Z" fill="rgb(0,0,0)" fill-opacity="1.00" transform="translate(518.77,70.40)"/>
  <path d="M6.19,-29.57Q5.47,-29.57 4.92,-29.83Q4.37,-30.10 4.06,-30.55Q3.74,-31.01 3.74,-31.58Q3.74,-32.21 4.06,-32.66Q4.37,-33.12 4.92,-33.38Q5.47,-33.65 6.19,-33.65Q6.91,-33.65 7.46,-33.38Q8.02,-33.12 8.33,-32.66Q8.64,-32.21 8.64,-31.58Q8.64,-31.01 8.33,-30.55Q8.02,-30.10 7.46,-29.83Q6.91,-29.57 6.19,-29.57ZM3.36,-0.00L3.36,-0.48L6.24,-0.96L6.24,-22.75L2.88,-22.75L2.88,-23.28L6.91,-24.72L6.91,-0.96L9.79,-0.48L9.79,-0.00Z" fill="rgb(0,0,0)" fill-opacity="1.00" transform="translate(535.18,70.40)"/>
  <path d="M14.50,0.72Q11.18,0.72 8.62,-0.89Q6.05,-2.50 4.58,-5.35Q3.12,-8.21 3.12,-11.90Q3.12,-14.74 3.98,-17.06Q4.85,-19.39 6.41,-21.12Q7.97,-22.85 10.13,-23.78Q12.29,-24.72 14.88,-24.72Q16.75,-24.72 18.46,-24.31Q20.16,-23.90 21.53,-23.16Q22.90,-22.42 23.66,-21.38Q24.43,-20.35 24.43,-19.10Q24.43,-18.43 24.07,-18.00Q23.71,-17.57 23.14,-17.35Q22.56,-17.14 21.94,-17.14Q21.02,-17.14 20.23,-17.59Q19.44,-18.05 19.44,-18.96Q19.44,-19.49 19.82,-19.97Q20.21,-20.45 20.98,-20.78Q21.98,-21.36 21.98,-21.74Q21.98,-22.18 21.14,-22.70Q20.30,-23.23 18.72,-23.62Q17.14,-24.00 14.88,-24.00Q12.43,-24.00 10.42,-23.11Q8.40,-22.22 6.91,-20.62Q5.42,-19.01 4.61,-16.80Q3.79,-14.59 3.79,-11.90Q3.79,-9.26 4.58,-7.08Q5.38,-4.90 6.79,-3.31Q8.21,-1.73 10.18,-0.86Q12.14,-0.00 14.50,-0.00Q17.09,-0.00 19.15,-0.72Q21.22,-1.44 22.82,-2.88Q24.43,-4.32 25.58,-6.48L25.92,-6.00Q25.06,-4.32 23.93,-3.05Q22.80,-1.78 21.38,-0.94Q19.97,-0.10 18.24,0.31Q16.51,0.72 14.50,0.72Z" fill="rgb(0,0,0)" fill-opacity="1.00" transform="translate(548.34,70.40)"/>
  <path d="M6.19,-29.57Q5.47,-29.57 4.92,-29.83Q4.37,-30.10 4.06,-30.55Q3.74,-31.01 3.74,-31.58Q3.74,-32.21 4.06,-32.66Q4.37,-33.12 4.92,-33.38Q5.47,-33.65 6.19,-33.65Q6.91,-33.65 7.46,-33.38Q8.02,-33.12 8.33,-32.66Q8.64,-32.21 8.64,-31.58Q8.64,-31.01 8.33,-30.55Q8.02,-30.10 7.46,-29.83Q6.91,-29.57 6.19,-29.57ZM3.36,-0.00L3.36,-0.48L6.24,-0.96L6.24,-22.75L2.88,-22.75L2.88,-23.28L6.91,-24.72L6.91,-0.96L9.79,-0.48L9.79,-0.00Z" fill="rgb(0,0,0)" fill-opacity="1.00" transform="translate(577.38,70.40)"/>
  <path d="M14.88,-24.72Q18.19,-24.72 20.52,-23.35Q22.85,-21.98 24.07,-19.42Q25.30,-16.85 25.30,-13.25L3.79,-13.25L3.79,-13.73L24.62,-13.92Q24.62,-17.04 23.45,-19.30Q22.27,-21.55 20.11,-22.78Q17.95,-24.00 14.88,-24.00Q11.66,-24.00 9.14,-22.46Q6.62,-20.93 5.21,-18.19Q3.79,-15.46 3.79,-11.90Q3.79,-9.26 4.58,-7.08Q5.38,-4.90 6.79,-3.31Q8.21,-1.73 10.18,-0.86Q12.14,-0.00 14.50,-0.00Q16.42,-0.00 18.07,-0.41Q19.73,-0.82 21.10,-1.61Q22.46,-2.40 23.59,-3.62Q24.72,-4.85 25.58,-6.48L25.92,-6.00Q25.06,-4.32 23.93,-3.05Q22.80,-1.78 21.38,-0.94Q19.97,-0.10 18.24,0.31Q16.51,0.72 14.50,0.72Q12.00,0.72 9.91,-0.22Q7.82,-1.15 6.31,-2.83Q4.80,-4.51 3.96,-6.82Q3.12,-9.12 3.12,-11.90Q3.12,-14.74 3.98,-17.06Q4.85,-19.39 6.41,-21.12Q7.97,-22.85 10.13,-23.78Q12.29,-24.72 14.88,-24.72Z" fill="rgb(0,0,0)" fill-opacity="1.00" transform="translate(590.53,70.40)"/>
  <path d="M29.23,-0.48L29.23,-0.00L21.84,-0.00L21.84,-0.48L25.20,-0.96L25.20,-16.22Q25.20,-20.16 23.76,-22.08Q22.32,-24.00 19.34,-24.00Q17.62,-24.00 15.84,-23.30Q14.06,-22.61 12.41,-21.31Q10.75,-20.02 9.34,-18.26Q7.92,-16.51 6.91,-14.40L6.91,-0.96L10.27,-0.48L10.27,-0.00L3.36,-0.00L3.36,-0.48L6.24,-0.96L6.24,-22.75L2.88,-22.75L2.88,-23.28L6.91,-24.72L6.91,-16.80L7.30,-16.51Q9.02,-19.15 10.99,-20.98Q12.96,-22.80 15.10,-23.76Q17.23,-24.72 19.34,-24.72Q20.98,-24.72 22.20,-24.19Q23.42,-23.66 24.24,-22.61Q25.06,-21.55 25.46,-19.97Q25.87,-18.38 25.87,-16.22L25.87,-0.96Z" fill="rgb(0,0,0)" fill-opacity="1.00" transform="translate(619.57,70.40)"/>
  <path d="M14.50,0.72Q11.18,0.72 8.62,-0.89Q6.05,-2.50 4.58,-5.35Q3.12,-8.21 3.12,-11.90Q3.12,-14.74 3.98,-17.06Q4.85,-19.39 6.41,-21.12Q7.97,-22.85 10.13,-23.78Q12.29,-24.72 14.88,-24.72Q16.75,-24.72 18.46,-24.31Q20.16,-23.90 21.53,-23.16Q22.90,-22.42 23.66,-21.38Q24.43,-20.35 24.43,-19.10Q24.43,-18.43 24.07,-18.00Q23.71,-17.57 23.14,-17.35Q22.56,-17.14 21.94,-17.14Q21.02,-17.14 20.23,-17.59Q19.44,-18.05 19.44,-18.96Q19.44,-19.49 19.82,-19.97Q20.21,-20.45 20.98,-20.78Q21.98,-21.36 21.98,-21.74Q21.98,-22.18 21.14,-22.70Q20.30,-23.23 18.72,-23.62Q17.14,-24.00 14.88,-24.00Q12.43,-24.00 10.42,-23.11Q8.40,-22.22 6.91,-20.62Q5.42,-19.01 4.61,-16.80Q3.79,-14.59 3.79,-11.90Q3.79,-9.26 4.58,-7.08Q5.38,-4.90 6.79,-3.31Q8.21,-1.73 10.18,-0.86Q12.14,-0.00 14.50,-0.00Q17.09,-0.00 19.15,-0.72Q21.22,-1.44 22.82,-2.88Q24.43,-4.32 25.58,-6.48L25.92,-6.00Q25.06,-4.32 23.93,-3.05Q22.80,-1.78 21.38,-0.94Q19.97,-0.10 18.24,0.31Q16.51,0.72 14.50,0.72Z" fill="rgb(0,0,0)" fill-opacity="1.00" transform="translate(650.72,70.40)"/>
  <path d="M7.06,10.32Q5.66,10.32 4.56,9.84Q3.46,9.36 2.81,8.47Q2.16,7.58 2.16,6.43Q2.16,5.90 2.38,5.54Q2.59,5.18 2.95,4.94Q3.31,4.70 3.74,4.58Q4.18,4.46 4.66,4.46Q5.28,4.46 5.86,4.68Q6.43,4.90 6.79,5.28Q7.15,5.66 7.15,6.29Q7.15,6.91 6.89,7.46Q6.62,8.02 6.10,8.50Q5.76,8.83 5.59,9.02Q5.42,9.22 5.42,9.31Q5.42,9.79 7.06,9.79Q8.02,9.79 8.86,9.26Q9.70,8.74 10.37,7.73Q10.94,6.91 11.86,4.82Q12.77,2.74 13.68,-0.00L13.54,-0.00L4.46,-23.04L1.20,-23.52L1.20,-24.00L8.69,-24.00L8.69,-23.52L5.23,-23.09L13.73,-1.30L14.16,-1.30L21.12,-20.98Q21.17,-21.07 21.19,-21.24Q21.22,-21.41 21.22,-21.60Q21.22,-22.13 20.95,-22.51Q20.69,-22.90 20.06,-23.11Q19.44,-23.33 18.41,-23.42Q17.38,-23.52 15.89,-23.52L15.89,-24.00L25.87,-24.00L25.87,-23.52L22.56,-23.04L14.26,-0.00Q13.20,3.02 12.26,5.11Q11.33,7.20 10.75,8.11Q10.03,9.17 9.10,9.74Q8.16,10.32 7.06,10.32Z" fill="rgb(0,0,0)" fill-opacity="1.00" transform="translate(679.76,70.40)"/>
</svg>
