<?xml version="1.0" encoding="UTF-8"?>
<svg xmlns="http://www.w3.org/2000/svg" viewBox="0 0 421.65 88.00" width="422" height="88">
  <path d="M30.86,-0.00L26.54,-0.00L26.54,-15.98L8.98,-15.98L8.98,-0.00L4.66,-0.00L4.66,-34.27L8.98,-34.27L8.98,-19.78L26.54,-19.78L26.54,-34.27L30.86,-34.27Z" fill="rgb(0,0,0)" fill-opacity="1.00" transform="translate(20.00,70.40)"/>
  <path d="M14.02,-26.21Q17.33,-26.21 19.70,-24.77Q22.08,-23.33 23.35,-20.71Q24.62,-18.10 24.62,-14.59L24.62,-12.05L7.01,-12.05Q7.10,-7.68 9.24,-5.40Q11.38,-3.12 15.22,-3.12Q17.66,-3.12 19.56,-3.58Q21.46,-4.03 23.47,-4.90L23.47,-1.20Q21.50,-0.34 19.58,0.07Q17.66,0.48 15.02,0.48Q11.38,0.48 8.57,-1.01Q5.76,-2.50 4.20,-5.45Q2.64,-8.40 2.64,-12.67Q2.64,-16.90 4.06,-19.92Q5.47,-22.94 8.04,-24.58Q10.61,-26.21 14.02,-26.21ZM13.97,-22.75Q10.94,-22.75 9.19,-20.81Q7.44,-18.86 7.10,-15.41L20.21,-15.41Q20.16,-18.67 18.67,-20.71Q17.18,-22.75 13.97,-22.75Z" fill="rgb(0,0,0)" fill-opacity="1.00" transform="translate(55.57,70.40)"/>
  <path d="M8.30,-0.00L4.08,-0.00L4.08,-36.48L8.30,-36.48Z" fill="rgb(0,0,0)" fill-opacity="1.00" transform="translate(82.64,70.40)"/>
  <path d="M8.30,-0.00L4.08,-0.00L4.08,-36.48L8.30,-36.48Z" fill="rgb(0,0,0)" fill-opacity="1.00" transform="translate(95.02,70.40)"/>
  <path d="M26.45,-12.91Q26.45,-6.53 23.21,-3.02Q19.97,0.48 14.45,0.48Q11.04,0.48 8.38,-1.08Q5.71,-2.64 4.18,-5.64Q2.64,-8.64 2.64,-12.91Q2.64,-19.30 5.86,-22.75Q9.07,-26.21 14.59,-26.21Q18.10,-26.21 20.76,-24.65Q23.42,-23.09 24.94,-20.14Q26.45,-17.18 26.45,-12.91ZM7.01,-12.91Q7.01,-8.35 8.81,-5.69Q10.61,-3.02 14.54,-3.02Q18.43,-3.02 20.26,-5.69Q22.08,-8.35 22.08,-12.91Q22.08,-17.47 20.26,-20.06Q18.43,-22.66 14.50,-22.66Q10.56,-22.66 8.78,-20.06Q7.01,-17.47 7.01,-12.91Z" fill="rgb(0,0,0)" fill-opacity="1.00" transform="translate(107.41,70.40)"/>
  <path d="M9.22,-5.04Q8.59,-2.50 7.42,0.55Q6.24,3.60 5.09,6.19L1.97,6.19Q2.64,3.46 3.34,0.19Q4.03,-3.07 4.37,-5.57L8.88,-5.57Z" fill="rgb(0,0,0)" fill-opacity="1.00" transform="translate(136.45,70.40)"/>
  <path d="M4.51,-0.00L4.51,-34.27L24.24,-34.27L24.24,-0.00ZM6.96,-2.45L21.79,-2.45L21.79,-31.82L6.96,-31.82Z" fill="rgb(0,0,0)" fill-opacity="1.00" transform="translate(161.79,70.40)"/>
  <path d="M4.51,-0.00L4.51,-34.27L24.24,-34.27L24.24,-0.00ZM6.96,-2.45L21.79,-2.45L21.79,-31.82L6.96,-31.82Z" fill="rgb(0,0,0)" fill-opacity="1.00" transform="translate(190.59,70.40)"/>
  <path d="M4.51,-0.00L4.51,-34.27L24.24,-34.27L24.24,-0.00ZM6.96,-2.45L21.79,-2.45L21.79,-31.82L6.96,-31.82Z" fill="rgb(0,0,0)" fill-opacity="1.00" transform="translate(219.39,70.40)"/>
  <path d="M4.51,-0.00L4.51,-34.27L24.24,-34.27L24.24,-0.00ZM6.96,-2.45L21.79,-2.45L21.79,-31.82L6.96,-31.82Z" fill="rgb(0,0,0)" fill-opacity="1.00" transform="translate(248.19,70.40)"/>
  <path d="M4.51,-0.00L4.51,-34.27L24.24,-34.27L24.24,-0.00ZM6.96,-2.45L21.79,-2.45L21.79,-31.82L6.96,-31.82Z" fill="rgb(0,0,0)" fill-opacity="1.00" transform="translate(276.99,70.40)"/>
  <path d="M9.22,-5.04Q8.59,-2.50 7.42,0.55Q6.24,3.60 5.09,6.19L1.97,6.19Q2.64,3.46 3.34,0.19Q4.03,-3.07 4.37,-5.57L8.88,-5.57Z" fill="rgb(0,0,0)" fill-opacity="1.00" transform="translate(305.79,70.40)"/>
  <path d="M4.51,-0.00L4.51,-34.27L24.24,-34.27L24.24,-0.00ZM6.96,-2.45L21.79,-2.45L21.79,-31.82L6.96,-31.82Z" fill="rgb(0,0,0)" fill-opacity="1.00" transform="translate(331.14,70.40)"/>
  <path d="M4.51,-0.00L4.51,-34.27L24.24,-34.27L24.24,-0.00ZM6.96,-2.45L21.79,-2.45L21.79,-31.82L6.96,-31.82Z" fill="rgb(0,0,0)" fill-opacity="1.00" transform="translate(359.94,70.40)"/>
  <path d="M7.82,-9.65L5.09,-9.65L3.89,-34.27L9.02,-34.27ZM3.46,-2.59Q3.46,-4.37 4.32,-5.09Q5.18,-5.81 6.43,-5.81Q7.63,-5.81 8.52,-5.09Q9.41,-4.37 9.41,-2.59Q9.41,-0.86 8.52,-0.10Q7.63,0.67 6.43,0.67Q5.18,0.67 4.32,-0.10Q3.46,-0.86 3.46,-2.59Z" fill="rgb(0,0,0)" fill-opacity="1.00" transform="translate(388.74,70.40)"/>
</svg>
