<?xml version="1.0" encoding="UTF-8"?>
<svg xmlns="http://www.w3.org/2000/svg" viewBox="0 0 360.59 88.00" width="361" height="88">
  <path d="M4.75,14.64Q4.56,11.90 4.34,9.10Q4.13,6.29 3.79,3.36Q3.55,1.06 3.41,-0.91Q3.26,-2.88 3.26,-4.46Q3.26,-4.75 3.34,-5.11Q3.41,-5.47 3.50,-5.90Q3.79,-6.77 4.94,-9.22Q5.04,-9.46 5.71,-10.01Q6.38,-10.56 7.34,-11.23Q8.30,-11.90 9.29,-12.58Q10.27,-13.25 11.04,-13.73Q13.15,-14.98 14.76,-15.65Q16.37,-16.32 17.38,-16.32Q18.29,-16.32 19.15,-14.83Q19.63,-14.06 20.16,-12.86Q20.69,-11.66 21.31,-9.98Q21.89,-8.35 22.46,-7.15Q23.04,-5.95 23.52,-5.18Q24.62,-3.65 25.73,-3.65Q26.26,-3.65 26.26,-3.17L26.26,-0.53Q26.26,-0.00 25.73,-0.00Q23.38,-0.00 21.36,-2.06L20.78,-0.00Q17.47,-0.00 14.66,-0.72Q11.86,-1.44 10.13,-2.71Q8.40,-3.98 8.40,-5.62Q8.40,-7.15 9.31,-8.93Q7.10,-7.44 5.28,-6.05Q5.62,-2.06 6.86,5.38Q7.10,7.25 7.39,9.12Q7.68,10.99 7.97,12.86Q7.25,13.34 6.46,13.80Q5.66,14.26 4.75,14.64ZM20.45,-3.31Q19.39,-4.99 18.55,-7.54Q17.71,-10.08 17.47,-12.67Q16.13,-12.00 14.81,-10.97Q13.49,-9.94 12.46,-8.78Q11.42,-7.63 10.94,-6.62Q14.06,-3.98 20.45,-3.31Z" fill="rgb(0,0,0)" fill-opacity="1.00" transform="translate(20.00,70.40)"/>
  <path d="M-0.05,-0.00Q-0.48,-0.00 -0.48,-0.38L-0.48,-3.26Q-0.48,-3.65 -0.05,-3.65Q2.83,-3.65 5.28,-4.94Q5.14,-6.77 4.99,-8.54Q4.85,-10.32 4.70,-12.05Q4.27,-16.56 3.84,-20.93Q3.41,-25.30 2.88,-29.52Q3.55,-30.24 4.34,-30.91Q5.14,-31.58 6.05,-32.21Q6.19,-29.62 6.38,-26.23Q6.58,-22.85 6.86,-18.62Q7.10,-15.12 7.20,-12.07Q7.30,-9.02 7.34,-6.48Q7.34,-5.66 6.86,-4.30Q6.38,-2.93 5.66,-1.68Q4.80,-0.00 -0.05,-0.00Z" fill="rgb(0,0,0)" fill-opacity="1.00" transform="translate(45.34,70.40)"/>
  <path d="M12.58,-0.00Q9.74,-0.00 7.87,-1.13Q6.00,-2.26 5.76,-4.18Q5.57,-5.90 5.35,-8.04Q5.14,-10.18 4.90,-13.10Q4.66,-16.03 4.34,-20.04Q4.03,-24.05 3.65,-29.52Q4.32,-30.19 5.14,-30.89Q5.95,-31.58 6.91,-32.21Q7.06,-28.46 7.15,-24.82Q7.25,-21.17 7.32,-17.11Q7.39,-13.06 7.44,-8.11L7.58,-4.90Q9.84,-3.65 12.58,-3.65Q12.96,-3.65 12.96,-3.26L12.96,-0.38Q12.96,-0.00 12.58,-0.00Z" fill="rgb(0,0,0)" fill-opacity="1.00" transform="translate(55.52,70.40)"/>
  <path d="M0.05,-0.00Q-0.38,-0.00 -0.38,-0.43L-0.38,-3.22Q-0.38,-3.65 0.05,-3.65Q5.04,-3.65 8.26,-4.80L7.39,-5.90Q6.48,-7.30 5.78,-8.21Q5.09,-9.12 4.66,-9.60Q3.79,-10.70 3.07,-11.18L2.30,-10.70Q1.44,-11.66 1.44,-12.82Q1.44,-13.97 2.23,-14.81Q3.02,-15.65 4.25,-16.30Q5.47,-16.94 6.77,-17.33Q8.69,-17.95 10.85,-17.95Q12.91,-17.95 14.52,-17.16Q16.13,-16.37 17.04,-15.02Q18.00,-13.68 18.00,-11.95Q18.00,-9.70 16.82,-7.87Q15.65,-6.05 13.73,-4.51Q15.74,-3.65 20.21,-3.65Q20.69,-3.65 20.69,-3.22L20.69,-0.43Q20.69,-0.00 20.21,-0.00Q16.94,-0.00 14.66,-0.62Q12.38,-1.25 10.51,-2.59Q7.87,-1.25 5.42,-0.62Q2.98,-0.00 0.05,-0.00ZM11.09,-6.34Q12.72,-7.44 13.66,-8.64Q14.59,-9.84 14.59,-10.94Q14.59,-12.29 13.58,-13.15Q12.58,-14.02 10.99,-14.02Q8.06,-14.02 5.33,-12.58Q7.10,-11.18 9.94,-7.63Q10.46,-7.01 11.09,-6.34Z" fill="rgb(0,0,0)" fill-opacity="1.00" transform="translate(67.66,70.40)"/>
  <path d="M-0.05,-0.00Q-0.48,-0.00 -0.48,-0.38L-0.48,-3.26Q-0.48,-3.65 -0.05,-3.65Q2.83,-3.65 5.28,-4.94Q5.14,-6.77 4.99,-8.54Q4.85,-10.32 4.70,-12.05Q4.27,-16.56 3.84,-20.93Q3.41,-25.30 2.88,-29.52Q3.55,-30.24 4.34,-30.91Q5.14,-31.58 6.05,-32.21Q6.19,-29.62 6.38,-26.23Q6.58,-22.85 6.86,-18.62Q7.10,-15.12 7.20,-12.07Q7.30,-9.02 7.34,-6.48Q7.34,-5.66 6.86,-4.30Q6.38,-2.93 5.66,-1.68Q4.80,-0.00 -0.05,-0.00Z" fill="rgb(0,0,0)" fill-opacity="1.00" transform="translate(87.54,70.40)"/>
  <path d="M4.99,-0.00Q4.85,-8.45 4.54,-15.43Q4.22,-22.42 3.70,-27.94Q3.50,-29.90 4.25,-30.89Q4.99,-31.87 6.86,-32.21Q7.06,-31.30 7.51,-29.74Q7.97,-28.18 8.54,-26.50L7.25,-25.39Q7.44,-21.84 7.51,-18.10Q7.58,-14.35 7.51,-10.03Q7.44,-5.71 7.20,-0.38Z" fill="rgb(0,0,0)" fill-opacity="1.00" transform="translate(97.71,70.40)"/>
  <path d="M13.58,12.53Q8.64,12.53 5.95,10.18Q3.26,7.82 3.26,3.50Q3.26,2.54 3.34,1.73Q3.41,0.91 3.60,-0.12Q3.79,-1.15 4.18,-2.74L5.95,-2.30Q5.42,-0.10 5.42,1.10Q5.42,4.61 7.66,6.58Q9.89,8.54 13.73,8.54Q18.10,8.54 20.83,8.06Q23.57,7.58 25.73,6.67Q26.78,6.24 27.74,5.66Q28.70,5.09 29.57,4.32Q26.59,2.74 24.84,1.70Q23.09,0.67 22.13,-0.00Q21.02,-0.86 21.02,-1.20Q21.02,-1.63 21.34,-2.42Q21.65,-3.22 22.06,-3.84Q22.46,-4.46 22.75,-4.46Q24.43,-4.13 27.31,-3.89Q30.19,-3.65 33.26,-3.65Q33.79,-3.65 33.79,-3.12L33.79,-0.48Q33.79,-0.00 33.26,-0.00Q31.63,-0.00 29.54,-0.24Q27.46,-0.48 25.87,-0.86Q26.93,-0.24 28.01,0.34Q29.09,0.91 30.14,1.49Q30.86,1.92 31.06,2.64Q31.25,3.36 31.25,4.32Q31.25,5.52 30.05,6.82Q28.85,8.11 26.71,9.26Q24.58,10.42 21.74,11.28Q17.47,12.53 13.58,12.53ZM17.95,20.11Q15.94,18.53 14.83,17.18Q15.89,16.18 17.90,13.97Q18.14,14.16 18.86,14.88Q19.58,15.60 20.88,16.85Q20.40,17.52 19.68,18.34Q18.96,19.15 17.95,20.11ZM10.80,20.83Q8.64,19.10 7.58,17.90Q8.26,17.33 9.02,16.51Q9.79,15.70 10.70,14.64Q10.90,14.88 11.64,15.60Q12.38,16.32 13.63,17.52Q13.20,18.24 12.48,19.06Q11.76,19.87 10.80,20.83Z" fill="rgb(0,0,0)" fill-opacity="1.00" transform="translate(119.74,70.40)"/>
  <path d="M0.05,-0.00Q-0.38,-0.00 -0.38,-0.43L-0.38,-3.22Q-0.38,-3.65 0.05,-3.65Q5.23,-3.65 8.81,-4.27Q12.38,-4.90 15.41,-6.24Q15.31,-7.20 15.14,-8.14Q14.98,-9.07 14.78,-9.98Q13.30,-8.78 11.52,-8.06Q9.74,-7.34 7.97,-7.34Q5.86,-7.34 4.51,-8.95Q3.17,-10.56 3.17,-12.96Q3.17,-15.41 4.01,-17.57Q4.85,-19.73 6.14,-20.98Q7.58,-22.27 9.12,-22.27Q11.62,-22.27 13.54,-20.47Q15.46,-18.67 16.61,-15.41Q17.71,-12.10 17.71,-8.35Q17.71,-7.82 17.64,-6.94Q17.57,-6.05 17.21,-5.11Q16.85,-4.18 16.03,-3.46Q14.93,-2.69 12.65,-1.87Q10.37,-1.06 7.18,-0.53Q3.98,-0.00 0.05,-0.00ZM9.07,-10.99Q11.47,-10.99 14.16,-12.19Q13.25,-15.12 11.76,-16.66Q10.27,-18.19 8.40,-18.19Q6.96,-18.19 5.98,-16.87Q4.99,-15.55 4.99,-13.92Q4.99,-12.43 5.98,-11.71Q6.96,-10.99 9.07,-10.99ZM8.98,-25.10Q6.86,-26.69 5.52,-28.22Q7.97,-30.67 8.88,-31.73Q9.65,-30.91 10.44,-30.12Q11.23,-29.33 12.05,-28.61Q10.94,-27.02 8.98,-25.10Z" fill="rgb(0,0,0)" fill-opacity="1.00" transform="translate(152.72,70.40)"/>
  <path d="M14.78,-0.00Q10.37,-0.00 7.97,-0.74Q5.57,-1.49 4.42,-3.07Q3.26,-4.66 3.26,-7.01Q3.26,-7.92 3.43,-8.83Q3.60,-9.74 3.94,-10.66L5.62,-10.66Q5.47,-9.89 5.47,-8.83Q5.47,-6.48 6.77,-5.38Q8.06,-4.27 10.39,-3.96Q12.72,-3.65 15.79,-3.65Q19.54,-3.65 22.66,-4.01Q25.78,-4.37 28.80,-5.14Q28.56,-7.54 28.34,-9.91Q28.13,-12.29 27.91,-15.05Q27.70,-17.81 27.46,-21.34Q27.22,-24.86 26.88,-29.52Q27.55,-30.24 28.34,-30.91Q29.14,-31.58 30.05,-32.21Q30.29,-22.99 30.46,-16.46Q30.62,-9.94 30.72,-4.94Q32.88,-3.65 35.76,-3.65Q36.14,-3.65 36.14,-3.26L36.14,-0.38Q36.14,-0.00 35.76,-0.00Q33.55,-0.00 32.04,-0.65Q30.53,-1.30 29.52,-2.50Q25.78,-1.20 22.30,-0.60Q18.82,-0.00 14.78,-0.00ZM14.74,-9.31Q14.11,-9.31 13.87,-9.60Q13.63,-9.89 13.63,-10.27Q14.88,-10.37 16.06,-10.80Q17.23,-11.23 18.05,-11.81Q18.43,-12.05 18.70,-12.31Q18.96,-12.58 19.10,-12.86Q16.85,-12.91 15.60,-13.32Q14.35,-13.73 14.35,-15.17Q14.35,-15.94 14.93,-16.80Q15.50,-17.66 16.37,-18.29Q17.23,-18.91 18.10,-18.91Q19.34,-18.91 19.73,-17.57L18.96,-17.23Q18.72,-17.47 18.38,-17.47Q18.00,-17.47 17.47,-17.09Q16.94,-16.70 16.49,-16.18Q16.03,-15.65 15.94,-15.12Q16.75,-14.74 18.00,-14.62Q19.25,-14.50 19.87,-14.06Q20.30,-13.78 20.30,-13.15Q20.30,-12.53 19.39,-11.62Q18.48,-10.70 17.18,-10.01Q15.89,-9.31 14.74,-9.31Z" fill="rgb(0,0,0)" fill-opacity="1.00" transform="translate(183.49,70.40)"/>
  <path d="M0.00,-0.00Q-0.38,-0.00 -0.38,-0.38L-0.38,-3.26Q-0.38,-3.65 0.00,-3.65Q2.21,-3.65 4.49,-4.15Q6.77,-4.66 8.50,-5.42Q8.16,-6.53 7.73,-7.85Q7.30,-9.17 6.77,-10.70Q5.86,-13.10 5.86,-13.92Q5.86,-14.98 6.70,-16.08Q7.54,-17.18 8.98,-17.95Q9.07,-17.28 9.36,-15.91Q9.65,-14.54 10.08,-12.43Q10.80,-9.26 10.80,-7.54Q10.80,-6.82 10.34,-5.50Q9.89,-4.18 9.07,-2.64Q4.70,-0.00 0.00,-0.00ZM6.82,9.94Q5.76,9.12 4.90,8.33Q4.03,7.54 3.36,6.77Q5.52,4.70 6.72,3.26Q8.40,5.04 9.89,6.43Q8.74,8.02 6.82,9.94Z" fill="rgb(0,0,0)" fill-opacity="1.00" transform="translate(218.82,70.40)"/>
  <path d="M12.58,-0.00Q9.74,-0.00 7.87,-1.13Q6.00,-2.26 5.76,-4.18Q5.57,-5.90 5.35,-8.04Q5.14,-10.18 4.90,-13.10Q4.66,-16.03 4.34,-20.04Q4.03,-24.05 3.65,-29.52Q4.32,-30.19 5.14,-30.89Q5.95,-31.58 6.91,-32.21Q7.06,-28.46 7.15,-24.82Q7.25,-21.17 7.32,-17.11Q7.39,-13.06 7.44,-8.11L7.58,-4.90Q9.84,-3.65 12.58,-3.65Q12.96,-3.65 12.96,-3.26L12.96,-0.38Q12.96,-0.00 12.58,-0.00Z" fill="rgb(0,0,0)" fill-opacity="1.00" transform="translate(242.62,70.40)"/>
  <path d="M0.00,-0.00Q-0.38,-0.00 -0.38,-0.38L-0.38,-3.26Q-0.38,-3.65 0.00,-3.65Q3.50,-3.65 4.99,-4.99Q5.42,-5.38 6.10,-6.53Q6.77,-7.68 8.06,-10.13Q8.50,-10.94 9.55,-10.94Q10.13,-10.94 10.75,-10.56Q10.22,-9.31 9.65,-8.02Q9.07,-6.72 8.40,-5.47Q10.08,-4.46 11.45,-4.06Q12.82,-3.65 14.45,-3.65Q14.83,-3.65 14.83,-3.26L14.83,-0.38Q14.83,-0.00 14.45,-0.00Q9.98,-0.00 6.86,-2.83Q6.67,-2.54 6.48,-2.28Q6.29,-2.02 6.05,-1.78Q5.57,-1.15 3.77,-0.58Q1.97,-0.00 0.00,-0.00ZM7.78,9.94Q6.72,9.12 5.86,8.33Q4.99,7.54 4.32,6.77Q6.48,4.70 7.68,3.26Q9.36,5.04 10.85,6.43Q9.70,8.02 7.78,9.94Z" fill="rgb(0,0,0)" fill-opacity="1.00" transform="translate(254.77,70.40)"/>
  <path d="M0.00,-0.00Q-0.38,-0.00 -0.38,-0.38L-0.38,-3.26Q-0.38,-3.65 0.00,-3.65Q3.55,-3.65 6.31,-3.96Q9.07,-4.27 11.09,-4.90Q14.30,-6.00 15.86,-6.50Q17.42,-7.01 18.58,-7.20Q16.70,-8.11 14.88,-9.60Q12.96,-11.14 11.74,-11.71Q10.51,-12.29 9.26,-12.29Q7.78,-12.29 6.77,-11.90Q5.76,-11.52 3.98,-10.42Q3.31,-11.18 3.31,-12.29Q3.31,-14.11 4.90,-15.22Q6.48,-16.32 9.07,-16.32Q10.61,-16.32 12.17,-15.67Q13.73,-15.02 15.79,-13.49Q18.34,-11.66 20.09,-10.73Q21.84,-9.79 23.62,-9.41Q25.44,-8.98 28.90,-8.98L27.02,-5.47Q26.26,-5.57 25.27,-5.64Q24.29,-5.71 23.18,-5.71Q22.08,-5.71 21.10,-5.52Q20.11,-5.33 18.79,-4.75Q17.47,-4.18 15.31,-3.07Q13.54,-2.16 12.02,-1.56Q10.51,-0.96 8.86,-0.62Q7.20,-0.29 5.09,-0.14Q2.98,-0.00 0.00,-0.00Z" fill="rgb(0,0,0)" fill-opacity="1.00" transform="translate(268.78,70.40)"/>
  <path d="M5.33,9.79Q4.56,9.79 3.38,9.36Q2.21,8.93 1.01,8.30Q-0.19,7.68 -0.96,7.10L-0.34,5.52Q1.01,5.76 2.14,5.90Q3.26,6.05 4.22,6.05Q7.82,6.05 10.39,3.89Q12.96,1.73 14.30,-2.35Q13.97,-3.12 13.61,-3.86Q13.25,-4.61 12.82,-5.38Q11.18,-8.30 10.42,-10.06Q9.65,-11.81 9.65,-13.01Q9.65,-14.26 10.37,-15.00Q11.09,-15.74 12.43,-16.37Q12.62,-15.74 12.84,-15.00Q13.06,-14.26 13.39,-13.44Q14.16,-11.47 14.66,-10.01Q15.17,-8.54 15.41,-7.63Q15.70,-6.72 15.86,-5.98Q16.03,-5.23 16.08,-4.61Q17.71,-3.65 19.82,-3.65Q20.21,-3.65 20.21,-3.26L20.21,-0.38Q20.21,-0.00 19.82,-0.00Q17.57,-0.00 15.89,-1.15Q15.36,2.16 13.87,4.63Q12.38,7.10 10.18,8.45Q7.97,9.79 5.33,9.79Z" fill="rgb(0,0,0)" fill-opacity="1.00" transform="translate(299.31,70.40)"/>
  <path d="M17.18,-0.00Q15.26,-0.00 13.15,-0.36Q11.04,-0.72 9.07,-1.37Q7.10,-2.02 5.62,-2.88Q4.51,-1.34 3.17,-0.67Q1.82,-0.00 0.00,-0.00Q-0.38,-0.00 -0.38,-0.38L-0.38,-3.26Q-0.38,-3.65 0.00,-3.65Q1.82,-3.65 3.07,-4.54Q4.32,-5.42 5.23,-7.20Q6.10,-8.78 6.60,-9.82Q7.10,-10.85 7.54,-11.66Q7.97,-12.48 8.64,-13.34Q9.84,-14.93 11.09,-15.62Q12.34,-16.32 13.73,-16.32Q15.12,-16.32 16.51,-14.59Q17.90,-12.86 18.77,-10.18Q19.63,-7.54 19.63,-4.99Q19.63,-3.50 19.10,-2.30Q18.58,-1.10 17.18,-0.00ZM16.13,-3.65Q16.08,-5.86 15.46,-7.99Q14.83,-10.13 14.06,-11.23Q13.54,-12.05 12.96,-12.05Q11.18,-12.05 9.65,-9.89Q9.26,-9.31 8.71,-8.38Q8.16,-7.44 7.49,-6.05Q10.94,-4.22 16.13,-3.65Z" fill="rgb(0,0,0)" fill-opacity="1.00" transform="translate(318.70,70.40)"/>
</svg>
