<?xml version="1.0" encoding="UTF-8"?>
<svg xmlns="http://www.w3.org/2000/svg" viewBox="0 0 459.47 88.00" width="459" height="88">
  <path d="M4.18,14.64Q4.18,12.82 4.06,10.56Q3.94,8.30 3.70,5.66Q3.26,0.82 3.26,-0.24Q3.26,-1.15 3.72,-2.30Q4.18,-3.46 4.80,-4.70Q7.44,-5.52 10.20,-5.90Q12.96,-6.29 17.18,-6.29L16.18,-7.78Q13.15,-12.77 10.99,-12.77Q9.84,-12.77 8.81,-11.95Q7.78,-11.14 6.53,-9.22L4.99,-9.98Q6.24,-13.25 8.06,-15.00Q9.89,-16.75 11.90,-16.75Q13.92,-16.75 16.27,-13.63Q17.81,-11.47 19.08,-10.06Q20.35,-8.64 21.60,-7.68L19.78,-2.78Q14.69,-2.78 11.23,-2.33Q7.78,-1.87 5.09,-0.96Q5.33,0.48 5.57,1.87Q5.81,3.26 6.05,4.66Q6.53,7.01 6.86,9.05Q7.20,11.09 7.39,12.86Q6.72,13.34 5.93,13.80Q5.14,14.26 4.18,14.64Z" fill="rgb(0,0,0)" fill-opacity="1.00" transform="translate(20.00,70.40)"/>
  <path d="M5.33,9.79Q4.56,9.79 3.38,9.36Q2.21,8.93 1.01,8.30Q-0.19,7.68 -0.96,7.10L-0.34,5.52Q1.01,5.76 2.14,5.90Q3.26,6.05 4.22,6.05Q7.82,6.05 10.39,3.89Q12.96,1.73 14.30,-2.35Q13.97,-3.12 13.61,-3.86Q13.25,-4.61 12.82,-5.38Q11.18,-8.30 10.42,-10.06Q9.65,-11.81 9.65,-13.01Q9.65,-14.26 10.37,-15.00Q11.09,-15.74 12.43,-16.37Q12.72,-15.22 13.42,-13.39Q14.11,-11.57 14.59,-10.18Q15.22,-8.50 15.65,-6.86Q16.08,-5.23 16.08,-3.89Q16.08,-0.14 14.66,3.05Q13.25,6.24 10.80,8.02Q8.30,9.79 5.33,9.79Z" fill="rgb(0,0,0)" fill-opacity="1.00" transform="translate(43.47,70.40)"/>
  <path d="M17.28,13.78Q11.33,13.78 8.09,10.75Q4.85,7.73 4.85,2.02Q4.85,-0.96 6.31,-3.91Q7.78,-6.86 10.37,-9.12Q13.01,-11.38 15.98,-12.53Q15.41,-12.77 14.18,-13.18Q12.96,-13.58 11.62,-13.92Q10.27,-14.26 9.22,-14.26Q7.78,-14.26 6.74,-13.90Q5.71,-13.54 3.98,-12.43Q3.70,-12.67 3.48,-13.18Q3.26,-13.68 3.26,-14.26Q3.26,-16.08 4.87,-17.18Q6.48,-18.29 9.07,-18.29Q11.14,-18.29 13.13,-17.76Q15.12,-17.23 17.14,-16.61Q19.15,-15.98 21.22,-15.46Q23.28,-14.93 25.49,-14.93L28.66,-15.02L27.26,-11.33Q26.59,-11.23 25.92,-11.18Q25.25,-11.14 24.58,-11.14Q22.61,-10.99 20.35,-10.39Q18.10,-9.79 15.96,-8.83Q13.82,-7.87 12.05,-6.62Q9.41,-4.80 7.97,-2.59Q6.53,-0.38 6.53,2.02Q6.53,5.81 9.22,7.82Q11.90,9.84 17.42,9.84Q20.40,9.84 23.33,9.48Q26.26,9.12 29.14,8.50L29.71,10.08Q26.21,12.00 23.16,12.89Q20.11,13.78 17.28,13.78Z" fill="rgb(0,0,0)" fill-opacity="1.00" transform="translate(62.00,70.40)"/>
  <path d="M15.07,-0.00Q9.41,-0.00 6.38,-2.04Q3.36,-4.08 3.36,-8.16Q3.36,-11.23 3.98,-13.44L5.71,-13.44Q5.66,-13.25 5.62,-12.46Q5.57,-11.66 5.57,-11.09Q5.57,-8.30 6.62,-6.79Q7.68,-5.28 9.98,-4.46Q12.34,-3.65 16.08,-3.65Q20.54,-3.65 24.82,-4.56Q29.09,-5.47 32.40,-7.06Q32.16,-8.06 31.73,-9.38Q31.30,-10.70 30.67,-12.34Q29.76,-14.74 29.76,-15.55Q29.76,-16.56 30.58,-17.64Q31.39,-18.72 32.93,-19.58Q33.70,-16.03 34.20,-13.46Q34.70,-10.90 34.70,-9.17Q34.70,-7.54 33.02,-4.27Q29.86,-2.26 25.32,-1.13Q20.78,-0.00 15.07,-0.00ZM18.24,9.94Q17.18,9.12 16.32,8.33Q15.46,7.54 14.78,6.77Q16.94,4.70 18.14,3.26Q19.82,5.04 21.31,6.43Q20.16,8.02 18.24,9.94Z" fill="rgb(0,0,0)" fill-opacity="1.00" transform="translate(92.53,70.40)"/>
  <path d="M4.99,-0.00Q4.85,-8.45 4.54,-15.43Q4.22,-22.42 3.70,-27.94Q3.50,-29.90 4.25,-30.89Q4.99,-31.87 6.86,-32.21Q7.06,-31.30 7.51,-29.74Q7.97,-28.18 8.54,-26.50L7.25,-25.39Q7.44,-21.84 7.51,-18.10Q7.58,-14.35 7.51,-10.03Q7.44,-5.71 7.20,-0.38Z" fill="rgb(0,0,0)" fill-opacity="1.00" transform="translate(129.58,70.40)"/>
  <path d="M15.07,-0.00Q9.41,-0.00 6.38,-2.04Q3.36,-4.08 3.36,-8.16Q3.36,-11.23 3.98,-13.44L5.71,-13.44Q5.66,-13.25 5.62,-12.46Q5.57,-11.66 5.57,-11.09Q5.57,-8.30 6.62,-6.79Q7.68,-5.28 9.98,-4.46Q12.34,-3.65 16.08,-3.65Q20.54,-3.65 24.82,-4.56Q29.09,-5.47 32.40,-7.06Q32.16,-8.06 31.73,-9.38Q31.30,-10.70 30.67,-12.34Q29.76,-14.74 29.76,-15.55Q29.76,-16.56 30.58,-17.64Q31.39,-18.72 32.93,-19.58Q33.70,-16.03 34.20,-13.46Q34.70,-10.90 34.70,-9.17Q34.70,-7.54 33.02,-4.27Q29.86,-2.26 25.32,-1.13Q20.78,-0.00 15.07,-0.00ZM18.24,9.94Q17.18,9.12 16.32,8.33Q15.46,7.54 14.78,6.77Q16.94,4.70 18.14,3.26Q19.82,5.04 21.31,6.43Q20.16,8.02 18.24,9.94Z" fill="rgb(0,0,0)" fill-opacity="1.00" transform="translate(151.62,70.40)"/>
  <path d="M10.85,-0.00Q7.78,-0.00 4.32,-0.29Q0.82,-0.58 0.82,-0.96Q0.82,-1.78 1.06,-2.98Q1.30,-4.18 1.58,-4.66Q3.46,-4.22 6.31,-3.94Q9.17,-3.65 11.76,-3.65Q14.30,-3.65 16.90,-3.89Q19.49,-4.13 22.08,-4.61Q21.60,-7.44 21.12,-10.30Q20.64,-13.15 20.11,-15.98Q19.82,-17.52 19.51,-19.37Q19.20,-21.22 18.96,-23.02Q18.72,-24.82 18.58,-26.26Q18.43,-27.70 18.43,-28.42Q18.43,-30.00 19.15,-30.91Q19.87,-31.82 21.60,-32.21Q21.84,-31.30 22.34,-29.62Q22.85,-27.94 23.28,-26.50L22.03,-25.44Q23.90,-7.97 23.90,-5.18Q23.90,-3.84 23.42,-2.81Q22.94,-1.78 22.18,-0.82Q19.54,-0.43 16.68,-0.22Q13.82,-0.00 10.85,-0.00ZM8.64,-9.31Q8.02,-9.31 7.78,-9.60Q7.54,-9.89 7.54,-10.27Q8.78,-10.37 9.96,-10.80Q11.14,-11.23 11.95,-11.81Q12.34,-12.05 12.60,-12.31Q12.86,-12.58 13.01,-12.86Q10.75,-12.91 9.50,-13.32Q8.26,-13.73 8.26,-15.17Q8.26,-15.94 8.83,-16.80Q9.41,-17.66 10.27,-18.29Q11.14,-18.91 12.00,-18.91Q13.25,-18.91 13.63,-17.57L12.86,-17.23Q12.62,-17.47 12.29,-17.47Q11.90,-17.47 11.35,-17.09Q10.80,-16.70 10.37,-16.18Q9.94,-15.65 9.84,-15.12Q10.66,-14.74 11.90,-14.62Q13.15,-14.50 13.78,-14.06Q14.21,-13.78 14.21,-13.15Q14.21,-12.53 13.30,-11.62Q12.38,-10.70 11.09,-10.01Q9.79,-9.31 8.64,-9.31Z" fill="rgb(0,0,0)" fill-opacity="1.00" transform="translate(188.67,70.40)"/>
  <path d="M15.36,-0.00Q3.26,-0.00 3.26,-8.16Q3.26,-9.70 3.43,-10.99Q3.60,-12.29 3.94,-13.44L5.66,-13.44Q5.57,-12.86 5.52,-12.26Q5.47,-11.66 5.47,-11.09Q5.47,-8.16 6.55,-6.70Q7.63,-5.23 10.03,-4.42Q11.28,-4.08 12.86,-3.86Q14.45,-3.65 16.42,-3.65Q18.82,-3.65 21.55,-3.91Q24.29,-4.18 27.00,-4.63Q29.71,-5.09 32.06,-5.71Q34.42,-6.34 36.00,-7.06Q35.86,-8.02 35.71,-8.95Q35.57,-9.89 35.33,-10.80Q32.11,-8.16 28.51,-8.16Q26.45,-8.16 25.10,-9.74Q23.76,-11.33 23.76,-13.78Q23.76,-16.18 24.55,-18.26Q25.34,-20.35 26.59,-21.60Q27.98,-23.09 29.71,-23.09Q32.11,-23.09 34.06,-21.36Q36.00,-19.63 37.15,-16.37Q37.68,-14.74 37.97,-12.94Q38.26,-11.14 38.26,-9.17Q38.26,-8.64 38.26,-7.87Q38.26,-7.10 37.92,-6.19Q37.58,-5.28 36.58,-4.27Q35.14,-3.17 32.83,-2.35Q30.53,-1.54 27.65,-1.01Q24.77,-0.48 21.62,-0.24Q18.48,-0.00 15.36,-0.00ZM29.66,-11.81Q30.82,-11.81 32.09,-12.12Q33.36,-12.43 34.70,-13.01Q33.79,-15.94 32.33,-17.47Q30.86,-19.01 28.99,-19.01Q27.55,-19.01 26.57,-17.69Q25.58,-16.37 25.58,-14.74Q25.58,-13.20 26.57,-12.50Q27.55,-11.81 29.66,-11.81ZM29.62,-25.92Q27.50,-27.50 26.16,-29.04Q28.61,-31.49 29.52,-32.54Q30.29,-31.73 31.08,-30.94Q31.87,-30.14 32.69,-29.42Q31.58,-27.84 29.62,-25.92Z" fill="rgb(0,0,0)" fill-opacity="1.00" transform="translate(226.06,70.40)"/>
  <path d="M11.95,12.58Q7.87,12.58 5.57,10.22Q3.26,7.87 3.26,3.55Q3.26,2.59 3.34,1.78Q3.41,0.96 3.60,-0.07Q3.79,-1.10 4.18,-2.69L5.95,-2.26Q5.42,-0.05 5.42,1.15Q5.42,4.66 7.18,6.62Q8.93,8.59 12.05,8.59Q13.78,8.59 15.79,8.18Q17.81,7.78 19.78,7.03Q21.74,6.29 23.23,5.33Q25.54,3.89 26.26,2.30Q25.63,2.21 25.03,2.11Q24.43,2.02 23.76,1.97Q20.11,1.68 18.34,1.08Q16.56,0.48 15.60,-0.86Q14.69,-2.21 14.69,-4.37Q14.69,-5.86 15.38,-7.63Q16.08,-9.41 17.33,-11.16Q18.58,-12.91 20.11,-14.26Q22.46,-16.32 24.34,-16.32Q25.97,-16.32 26.78,-15.22Q27.60,-14.11 28.03,-12.14L26.30,-11.66Q25.97,-12.14 25.66,-12.26Q25.34,-12.38 24.77,-12.38Q23.95,-12.38 22.78,-11.78Q21.60,-11.18 20.42,-10.15Q19.25,-9.12 18.24,-7.87Q16.75,-5.86 16.42,-4.18Q17.71,-2.93 21.70,-2.35Q23.42,-2.11 24.62,-1.80Q25.82,-1.49 26.54,-1.01Q27.36,-0.43 27.67,0.36Q27.98,1.15 27.98,2.26Q27.98,3.70 26.76,5.33Q25.54,6.96 23.50,8.45Q21.46,9.94 18.91,10.99Q15.17,12.58 11.95,12.58ZM16.99,20.11Q14.98,18.53 13.87,17.18Q14.93,16.18 16.94,13.97Q17.18,14.16 17.90,14.88Q18.62,15.60 19.92,16.85Q19.44,17.52 18.72,18.34Q18.00,19.15 16.99,20.11ZM9.84,20.83Q7.68,19.10 6.62,17.90Q7.30,17.33 8.06,16.51Q8.83,15.70 9.74,14.64Q9.94,14.88 10.68,15.60Q11.42,16.32 12.67,17.52Q12.24,18.24 11.52,19.06Q10.80,19.87 9.84,20.83Z" fill="rgb(0,0,0)" fill-opacity="1.00" transform="translate(266.77,70.40)"/>
  <path d="M4.99,-0.00Q4.85,-8.45 4.54,-15.43Q4.22,-22.42 3.70,-27.94Q3.50,-29.90 4.25,-30.89Q4.99,-31.87 6.86,-32.21Q7.06,-31.30 7.51,-29.74Q7.97,-28.18 8.54,-26.50L7.25,-25.39Q7.44,-21.84 7.51,-18.10Q7.58,-14.35 7.51,-10.03Q7.44,-5.71 7.20,-0.38Z" fill="rgb(0,0,0)" fill-opacity="1.00" transform="translate(307.04,70.40)"/>
  <path d="M11.95,12.58Q7.87,12.58 5.57,10.22Q3.26,7.87 3.26,3.55Q3.26,2.59 3.34,1.78Q3.41,0.96 3.60,-0.07Q3.79,-1.10 4.18,-2.69L5.95,-2.26Q5.42,-0.05 5.42,1.15Q5.42,4.66 7.18,6.62Q8.93,8.59 12.05,8.59Q14.35,8.59 16.80,7.80Q19.25,7.01 21.12,5.62Q23.04,4.22 23.81,2.59L22.56,-5.14Q22.08,-8.21 21.50,-11.76Q20.93,-15.31 20.40,-18.70Q19.87,-22.08 19.56,-24.67Q19.25,-27.26 19.25,-28.46Q19.25,-30.10 19.99,-30.98Q20.74,-31.87 22.37,-32.21Q22.70,-31.15 23.18,-29.52Q23.66,-27.89 24.10,-26.50L22.99,-25.54L24.62,-10.56Q25.10,-6.96 25.34,-4.13Q25.58,-1.30 25.58,0.82Q25.58,3.74 23.74,6.46Q21.89,9.17 18.62,10.85Q15.41,12.58 11.95,12.58Z" fill="rgb(0,0,0)" fill-opacity="1.00" transform="translate(318.46,70.40)"/>
  <path d="M17.86,13.73Q14.11,13.73 11.33,12.46Q8.54,11.18 7.01,8.83Q5.47,6.48 5.47,3.36Q5.47,-2.02 9.36,-6.19Q7.87,-6.62 6.50,-7.68Q5.14,-8.74 4.32,-10.08Q3.50,-11.38 3.50,-13.01Q3.50,-15.07 4.61,-17.30Q5.71,-19.54 7.49,-20.88Q9.17,-22.27 11.18,-22.27Q12.86,-22.27 14.26,-21.55Q15.65,-20.83 17.76,-19.10L16.94,-17.57Q14.06,-18.43 12.38,-18.43Q9.41,-18.43 6.24,-16.70Q6.24,-13.87 8.21,-12.00Q10.18,-10.13 13.68,-9.55Q17.23,-11.71 22.08,-13.30Q22.61,-12.53 22.61,-11.81Q22.61,-11.18 22.32,-10.66Q22.03,-10.13 21.31,-9.60Q20.64,-9.12 19.58,-8.64Q18.53,-8.16 17.28,-7.68Q13.68,-6.14 11.59,-4.61Q9.50,-3.07 8.40,-1.39Q7.82,-0.43 7.51,0.55Q7.20,1.54 7.20,2.59Q7.20,6.00 9.94,7.87Q12.67,9.74 18.00,9.74Q19.20,9.74 20.30,9.70Q21.41,9.65 22.46,9.55Q24.34,9.41 26.09,9.12Q27.84,8.83 29.66,8.40L30.19,10.03Q23.52,13.73 17.86,13.73Z" fill="rgb(0,0,0)" fill-opacity="1.00" transform="translate(347.02,70.40)"/>
  <path d="M4.99,-0.00Q4.85,-8.45 4.54,-15.43Q4.22,-22.42 3.70,-27.94Q3.50,-29.90 4.25,-30.89Q4.99,-31.87 6.86,-32.21Q7.06,-31.30 7.51,-29.74Q7.97,-28.18 8.54,-26.50L7.25,-25.39Q7.44,-21.84 7.51,-18.10Q7.58,-14.35 7.51,-10.03Q7.44,-5.71 7.20,-0.38Z" fill="rgb(0,0,0)" fill-opacity="1.00" transform="translate(376.02,70.40)"/>
  <path d="M11.95,12.58Q7.87,12.58 5.57,10.22Q3.26,7.87 3.26,3.55Q3.26,2.59 3.34,1.78Q3.41,0.96 3.60,-0.07Q3.79,-1.10 4.18,-2.69L5.95,-2.26Q5.42,-0.05 5.42,1.15Q5.42,4.66 7.18,6.62Q8.93,8.59 12.05,8.59Q14.35,8.59 16.80,7.80Q19.25,7.01 21.12,5.62Q23.04,4.22 23.81,2.59L22.56,-5.14Q22.08,-8.21 21.50,-11.76Q20.93,-15.31 20.40,-18.70Q19.87,-22.08 19.56,-24.67Q19.25,-27.26 19.25,-28.46Q19.25,-30.10 19.99,-30.98Q20.74,-31.87 22.37,-32.21Q22.70,-31.15 23.18,-29.52Q23.66,-27.89 24.10,-26.50L22.99,-25.54L24.62,-10.56Q25.10,-6.96 25.34,-4.13Q25.58,-1.30 25.58,0.82Q25.58,3.74 23.74,6.46Q21.89,9.17 18.62,10.85Q15.41,12.58 11.95,12.58Z" fill="rgb(0,0,0)" fill-opacity="1.00" transform="translate(387.44,70.40)"/>
  <path d="M4.18,14.64Q4.18,12.82 4.06,10.56Q3.94,8.30 3.70,5.66Q3.26,0.82 3.26,-0.24Q3.26,-1.15 3.72,-2.30Q4.18,-3.46 4.80,-4.70Q7.44,-5.52 10.20,-5.90Q12.96,-6.29 17.18,-6.29L16.18,-7.78Q13.15,-12.77 10.99,-12.77Q9.84,-12.77 8.81,-11.95Q7.78,-11.14 6.53,-9.22L4.99,-9.98Q6.24,-13.25 8.06,-15.00Q9.89,-16.75 11.90,-16.75Q13.92,-16.75 16.27,-13.63Q17.81,-11.47 19.08,-10.06Q20.35,-8.64 21.60,-7.68L19.78,-2.78Q14.69,-2.78 11.23,-2.33Q7.78,-1.87 5.09,-0.96Q5.33,0.48 5.57,1.87Q5.81,3.26 6.05,4.66Q6.53,7.01 6.86,9.05Q7.20,11.09 7.39,12.86Q6.72,13.34 5.93,13.80Q5.14,14.26 4.18,14.64Z" fill="rgb(0,0,0)" fill-opacity="1.00" transform="translate(416.00,70.40)"/>
</svg>
